<svg xmlns="http://www.w3.org/2000/svg" xmlns:xlink="http://www.w3.org/1999/xlink" width="1328" zoomAndPan="magnify" viewBox="0 0 996 552.000001" height="736" preserveAspectRatio="xMidYMid meet" version="1.0"><defs><g/><clipPath id="30ea19fd60"><path d="M 0.902344 0 L 995.097656 0 L 995.097656 551 L 0.902344 551 Z M 0.902344 0 " clip-rule="nonzero"/></clipPath><clipPath id="c22deaa88c"><rect x="0" width="712" y="0" height="382"/></clipPath><clipPath id="638eafcb7c"><path d="M 6 97 L 167 97 L 167 189 L 6 189 Z M 6 97 " clip-rule="nonzero"/></clipPath><clipPath id="dba5b1229d"><path d="M 0.90625 78.882812 L 347.480469 9.535156 L 382.742188 185.761719 L 36.167969 255.105469 Z M 0.90625 78.882812 " clip-rule="nonzero"/></clipPath><clipPath id="a65c509ecb"><path d="M 0.90625 78.882812 L 347.480469 9.535156 L 382.742188 185.761719 L 36.167969 255.105469 Z M 0.90625 78.882812 " clip-rule="nonzero"/></clipPath><clipPath id="ab4cc51646"><path d="M 0.90625 78.882812 L 347.480469 9.535156 L 382.738281 185.761719 L 36.167969 255.105469 Z M 0.90625 78.882812 " clip-rule="nonzero"/></clipPath><clipPath id="af9a468fa5"><path d="M 251 10 L 342 10 L 342 165 L 251 165 Z M 251 10 " clip-rule="nonzero"/></clipPath><clipPath id="e6f01d829d"><path d="M 0.90625 78.882812 L 347.480469 9.535156 L 382.742188 185.761719 L 36.167969 255.105469 Z M 0.90625 78.882812 " clip-rule="nonzero"/></clipPath><clipPath id="3ecd377688"><path d="M 0.90625 78.882812 L 347.480469 9.535156 L 382.742188 185.761719 L 36.167969 255.105469 Z M 0.90625 78.882812 " clip-rule="nonzero"/></clipPath><clipPath id="d7edea3574"><path d="M 0.90625 78.882812 L 347.480469 9.535156 L 382.738281 185.761719 L 36.167969 255.105469 Z M 0.90625 78.882812 " clip-rule="nonzero"/></clipPath><clipPath id="76ad951e88"><path d="M 89 92 L 145 92 L 145 147 L 89 147 Z M 89 92 " clip-rule="nonzero"/></clipPath><clipPath id="781d1fb00b"><path d="M 0.90625 78.882812 L 347.480469 9.535156 L 382.742188 185.761719 L 36.167969 255.105469 Z M 0.90625 78.882812 " clip-rule="nonzero"/></clipPath><clipPath id="cbeb7c5b98"><path d="M 0.90625 78.882812 L 347.480469 9.535156 L 382.742188 185.761719 L 36.167969 255.105469 Z M 0.90625 78.882812 " clip-rule="nonzero"/></clipPath><clipPath id="38aa3bcae0"><path d="M 0.90625 78.882812 L 347.480469 9.535156 L 382.738281 185.761719 L 36.167969 255.105469 Z M 0.90625 78.882812 " clip-rule="nonzero"/></clipPath><clipPath id="856db69b71"><path d="M 50 230 L 101 230 L 101 248 L 50 248 Z M 50 230 " clip-rule="nonzero"/></clipPath><clipPath id="51712460a3"><path d="M 0.90625 78.882812 L 347.480469 9.535156 L 382.742188 185.761719 L 36.167969 255.105469 Z M 0.90625 78.882812 " clip-rule="nonzero"/></clipPath><clipPath id="211417bdab"><path d="M 0.90625 78.882812 L 347.480469 9.535156 L 382.742188 185.761719 L 36.167969 255.105469 Z M 0.90625 78.882812 " clip-rule="nonzero"/></clipPath><clipPath id="ff656973a1"><path d="M 0.90625 78.882812 L 347.480469 9.535156 L 382.738281 185.761719 L 36.167969 255.105469 Z M 0.90625 78.882812 " clip-rule="nonzero"/></clipPath><clipPath id="98889c0d53"><path d="M 288 109 L 337 109 L 337 160 L 288 160 Z M 288 109 " clip-rule="nonzero"/></clipPath><clipPath id="d66532dc19"><path d="M 0.90625 78.882812 L 347.480469 9.535156 L 382.742188 185.761719 L 36.167969 255.105469 Z M 0.90625 78.882812 " clip-rule="nonzero"/></clipPath><clipPath id="f6338e54d4"><path d="M 0.90625 78.882812 L 347.480469 9.535156 L 382.742188 185.761719 L 36.167969 255.105469 Z M 0.90625 78.882812 " clip-rule="nonzero"/></clipPath><clipPath id="e6f81a08ca"><path d="M 0.90625 78.882812 L 347.480469 9.535156 L 382.738281 185.761719 L 36.167969 255.105469 Z M 0.90625 78.882812 " clip-rule="nonzero"/></clipPath><clipPath id="902821cc76"><path d="M 298 160 L 347 160 L 347 188 L 298 188 Z M 298 160 " clip-rule="nonzero"/></clipPath><clipPath id="36cbe98419"><path d="M 0.90625 78.882812 L 347.480469 9.535156 L 382.742188 185.761719 L 36.167969 255.105469 Z M 0.90625 78.882812 " clip-rule="nonzero"/></clipPath><clipPath id="3c74a2bffc"><path d="M 0.90625 78.882812 L 347.480469 9.535156 L 382.742188 185.761719 L 36.167969 255.105469 Z M 0.90625 78.882812 " clip-rule="nonzero"/></clipPath><clipPath id="6fe7093feb"><path d="M 0.90625 78.882812 L 347.480469 9.535156 L 382.738281 185.761719 L 36.167969 255.105469 Z M 0.90625 78.882812 " clip-rule="nonzero"/></clipPath><clipPath id="cfe9e54fcb"><path d="M 69 194 L 120 194 L 120 212 L 69 212 Z M 69 194 " clip-rule="nonzero"/></clipPath><clipPath id="7d13999875"><path d="M 0.90625 78.882812 L 347.480469 9.535156 L 382.742188 185.761719 L 36.167969 255.105469 Z M 0.90625 78.882812 " clip-rule="nonzero"/></clipPath><clipPath id="28a54a86b0"><path d="M 0.90625 78.882812 L 347.480469 9.535156 L 382.742188 185.761719 L 36.167969 255.105469 Z M 0.90625 78.882812 " clip-rule="nonzero"/></clipPath><clipPath id="a64a70ad5b"><path d="M 0.90625 78.882812 L 347.480469 9.535156 L 382.738281 185.761719 L 36.167969 255.105469 Z M 0.90625 78.882812 " clip-rule="nonzero"/></clipPath><clipPath id="61bddc9430"><path d="M 241 94 L 256 94 L 256 124 L 241 124 Z M 241 94 " clip-rule="nonzero"/></clipPath><clipPath id="64a414a22c"><path d="M 0.90625 78.882812 L 347.480469 9.535156 L 382.742188 185.761719 L 36.167969 255.105469 Z M 0.90625 78.882812 " clip-rule="nonzero"/></clipPath><clipPath id="c348685f69"><path d="M 0.90625 78.882812 L 347.480469 9.535156 L 382.742188 185.761719 L 36.167969 255.105469 Z M 0.90625 78.882812 " clip-rule="nonzero"/></clipPath><clipPath id="24fe213dc9"><path d="M 0.90625 78.882812 L 347.480469 9.535156 L 382.738281 185.761719 L 36.167969 255.105469 Z M 0.90625 78.882812 " clip-rule="nonzero"/></clipPath><clipPath id="233bf0c481"><path d="M 174 272 L 995 272 L 995 480 L 174 480 Z M 174 272 " clip-rule="nonzero"/></clipPath><clipPath id="44353cd303"><path d="M 665.191406 -44.675781 L 994.855469 343.398438 L 497.207031 766.144531 L 167.542969 378.070312 Z M 665.191406 -44.675781 " clip-rule="nonzero"/></clipPath><clipPath id="30d49c1443"><path d="M 665.191406 -44.675781 L 994.855469 343.398438 L 497.207031 766.144531 L 167.542969 378.070312 Z M 665.191406 -44.675781 " clip-rule="nonzero"/></clipPath><clipPath id="58303089cd"><path d="M 665.191406 -44.675781 L 994.855469 343.398438 L 497.207031 766.144531 L 167.542969 378.070312 Z M 665.191406 -44.675781 " clip-rule="nonzero"/></clipPath><clipPath id="91211bdf4d"><rect x="0" width="393" y="0" height="231"/></clipPath><clipPath id="50dabe788d"><rect x="0" width="996" y="0" height="551"/></clipPath></defs><g clip-path="url(#30ea19fd60)"><path fill="#ffffff" d="M 0.902344 0 L 995.097656 0 L 995.097656 551 L 0.902344 551 Z M 0.902344 0 " fill-opacity="1" fill-rule="nonzero"/><path fill="#ffffff" d="M 0.902344 0 L 995.097656 0 L 995.097656 551 L 0.902344 551 Z M 0.902344 0 " fill-opacity="1" fill-rule="nonzero"/><g transform="matrix(1, 0, 0, 1, 0, 0.000000000000054093)"><g clip-path="url(#50dabe788d)"><g transform="matrix(1, 0, 0, 1, 154, 43)"><g clip-path="url(#c22deaa88c)"><g fill="#000000" fill-opacity="1"><g transform="translate(32.397119, 295.71747)"><g><path d="M 28.9375 -6.140625 C 26.289062 -6.148438 23.34375 -6.203125 20.09375 -6.296875 C 16.851562 -6.390625 13.722656 -6.832031 10.703125 -7.625 C 7.691406 -8.414062 5.164062 -9.832031 3.125 -11.875 C 0.34375 -14.738281 -0.984375 -17.554688 -0.859375 -20.328125 C -0.734375 -23.109375 0.429688 -25.53125 2.640625 -27.59375 C 4.847656 -29.65625 7.644531 -30.921875 11.03125 -31.390625 C 13.125 -31.765625 15.53125 -31.707031 18.25 -31.21875 C 20.96875 -30.726562 23.707031 -30.304688 26.46875 -29.953125 C 29.226562 -29.597656 31.734375 -29.828125 33.984375 -30.640625 C 36.242188 -31.453125 37.941406 -33.398438 39.078125 -36.484375 C 40.398438 -39.828125 40.179688 -42.570312 38.421875 -44.71875 C 36.671875 -46.875 34.34375 -48.5625 31.4375 -49.78125 C 28.539062 -51.007812 25.894531 -51.953125 23.5 -52.609375 C 13.914062 -55.367188 6.429688 -59.960938 1.046875 -66.390625 C -4.328125 -72.816406 -7.191406 -81.15625 -7.546875 -91.40625 C -7.898438 -101.632812 -5.394531 -110.960938 -0.03125 -119.390625 C 5.320312 -127.816406 12.53125 -134.191406 21.59375 -138.515625 C 25.988281 -140.734375 30.9375 -142.382812 36.4375 -143.46875 C 41.945312 -144.550781 47.085938 -144.125 51.859375 -142.1875 C 54.554688 -141.113281 56.769531 -139.378906 58.5 -136.984375 C 60.238281 -134.585938 61.003906 -132.085938 60.796875 -129.484375 C 60.597656 -126.878906 58.804688 -124.675781 55.421875 -122.875 C 51.890625 -121.070312 48.414062 -118.820312 45 -116.125 C 41.582031 -113.425781 38.648438 -110.484375 36.203125 -107.296875 C 33.765625 -104.117188 32.1875 -100.816406 31.46875 -97.390625 C 30.757812 -93.972656 31.234375 -90.613281 32.890625 -87.3125 C 34.546875 -84.019531 37.835938 -80.945312 42.765625 -78.09375 C 45.835938 -76.238281 48.9375 -74.59375 52.0625 -73.15625 C 55.195312 -71.71875 58.179688 -70.078125 61.015625 -68.234375 C 63.859375 -66.398438 66.332031 -63.878906 68.4375 -60.671875 C 71.164062 -56.710938 73.054688 -52.21875 74.109375 -47.1875 C 75.171875 -42.15625 75.160156 -37.273438 74.078125 -32.546875 C 72.941406 -27.421875 70.8125 -23.148438 67.6875 -19.734375 C 64.570312 -16.328125 60.878906 -13.648438 56.609375 -11.703125 C 52.335938 -9.753906 47.816406 -8.363281 43.046875 -7.53125 C 38.285156 -6.695312 33.582031 -6.234375 28.9375 -6.140625 Z M 28.9375 -6.140625 "/></g></g></g><g fill="#000000" fill-opacity="1"><g transform="translate(120.426707, 280.322942)"><g><path d="M 48.0625 -14.875 C 43.03125 -9.4375 37.46875 -6.304688 31.375 -5.484375 C 25.289062 -4.671875 19.546875 -5.851562 14.140625 -9.03125 C 8.734375 -12.21875 4.410156 -16.882812 1.171875 -23.03125 C -1.609375 -28.769531 -3.539062 -35.046875 -4.625 -41.859375 C -5.707031 -48.679688 -5.539062 -55.421875 -4.125 -62.078125 C -2.707031 -68.734375 0.128906 -74.59375 4.390625 -79.65625 C 7.285156 -83.03125 10.957031 -85.675781 15.40625 -87.59375 C 19.851562 -89.507812 24.410156 -90.484375 29.078125 -90.515625 C 33.753906 -90.554688 37.910156 -89.394531 41.546875 -87.03125 C 45.191406 -84.675781 47.613281 -80.789062 48.8125 -75.375 C 51.476562 -71.050781 53.601562 -66.242188 55.1875 -60.953125 C 56.78125 -55.660156 57.664062 -50.242188 57.84375 -44.703125 C 58.03125 -39.160156 57.347656 -33.796875 55.796875 -28.609375 C 54.253906 -23.429688 51.675781 -18.851562 48.0625 -14.875 Z M 37.328125 -37.25 C 38.535156 -37.820312 39.289062 -39.125 39.59375 -41.15625 C 39.90625 -43.1875 39.957031 -45.472656 39.75 -48.015625 C 39.539062 -50.554688 39.210938 -52.921875 38.765625 -55.109375 C 38.328125 -57.304688 37.992188 -58.742188 37.765625 -59.421875 C 36.859375 -58.421875 36.039062 -57.257812 35.3125 -55.9375 C 34.582031 -54.613281 34.035156 -53.316406 33.671875 -52.046875 C 32.253906 -47.128906 31.726562 -43.085938 32.09375 -39.921875 C 32.46875 -36.765625 34.210938 -35.875 37.328125 -37.25 Z M 37.328125 -37.25 "/></g></g></g><g fill="#000000" fill-opacity="1"><g transform="translate(191.547799, 267.885355)"><g><path d="M 92.78125 -7.78125 C 90.226562 -9.363281 87.925781 -11.742188 85.875 -14.921875 C 83.820312 -18.097656 81.925781 -21.570312 80.1875 -25.34375 C 78.457031 -29.113281 76.859375 -32.785156 75.390625 -36.359375 C 73.921875 -39.941406 72.597656 -43.0625 71.421875 -45.71875 C 71.617188 -45.269531 71.015625 -44.265625 69.609375 -42.703125 C 68.210938 -41.148438 66.570312 -39.425781 64.6875 -37.53125 C 62.800781 -35.644531 61.054688 -33.960938 59.453125 -32.484375 C 57.847656 -31.015625 56.878906 -30.191406 56.546875 -30.015625 C 53.054688 -28.085938 50.140625 -27.632812 47.796875 -28.65625 C 45.460938 -29.6875 43.472656 -31.5 41.828125 -34.09375 C 40.179688 -36.6875 38.601562 -39.222656 37.09375 -41.703125 C 34.820312 -45.742188 32.4375 -47.875 29.9375 -48.09375 C 27.445312 -48.320312 24.628906 -46.476562 21.484375 -42.5625 C 18.992188 -39.613281 17.695312 -36.210938 17.59375 -32.359375 C 17.488281 -28.515625 17.785156 -24.585938 18.484375 -20.578125 C 19.191406 -16.566406 19.503906 -12.753906 19.421875 -9.140625 C 19.515625 -4.492188 18.613281 -1.582031 16.71875 -0.40625 C 14.832031 0.757812 12.703125 0.5625 10.328125 -1 C 7.960938 -2.5625 5.882812 -5.039062 4.09375 -8.4375 C 1.289062 -14.175781 -0.753906 -20.40625 -2.046875 -27.125 C -3.335938 -33.84375 -4.300781 -40.382812 -4.9375 -46.75 C -5.226562 -49.8125 -5.640625 -53.390625 -6.171875 -57.484375 C -6.710938 -61.585938 -6.828125 -65.644531 -6.515625 -69.65625 C -6.203125 -73.664062 -5.015625 -76.984375 -2.953125 -79.609375 C -0.628906 -82.773438 1.597656 -84.210938 3.734375 -83.921875 C 5.878906 -83.640625 7.800781 -82.390625 9.5 -80.171875 C 11.207031 -77.960938 12.582031 -75.421875 13.625 -72.546875 C 14.664062 -69.671875 15.25 -67.226562 15.375 -65.21875 C 17.46875 -68.9375 20.410156 -71.753906 24.203125 -73.671875 C 28.003906 -75.597656 32.054688 -75.921875 36.359375 -74.640625 C 38.742188 -73.972656 40.859375 -72.84375 42.703125 -71.25 C 44.546875 -69.65625 46.117188 -67.835938 47.421875 -65.796875 C 48.523438 -64.304688 49.398438 -62.535156 50.046875 -60.484375 C 50.703125 -58.441406 51.738281 -56.828125 53.15625 -55.640625 C 55.820312 -58.148438 58.535156 -60.421875 61.296875 -62.453125 C 64.066406 -64.492188 67.007812 -65.664062 70.125 -65.96875 C 73.25 -66.28125 76.59375 -65.128906 80.15625 -62.515625 C 83.3125 -60.191406 86.070312 -57.234375 88.4375 -53.640625 C 90.8125 -50.054688 92.910156 -46.296875 94.734375 -42.359375 C 96.554688 -38.421875 98.085938 -34.644531 99.328125 -31.03125 C 99.753906 -29.90625 100.269531 -28.109375 100.875 -25.640625 C 101.488281 -23.171875 101.953125 -20.523438 102.265625 -17.703125 C 102.585938 -14.878906 102.582031 -12.359375 102.25 -10.140625 C 101.914062 -7.929688 101.03125 -6.492188 99.59375 -5.828125 C 98.15625 -5.160156 95.882812 -5.8125 92.78125 -7.78125 Z M 92.78125 -7.78125 "/></g></g></g><g fill="#000000" fill-opacity="1"><g transform="translate(300.669424, 248.802272)"><g><path d="M 21.984375 -11.921875 C 16.359375 -11.898438 11.648438 -13.289062 7.859375 -16.09375 C 4.078125 -18.90625 1.191406 -22.59375 -0.796875 -27.15625 C -2.796875 -31.71875 -3.988281 -36.660156 -4.375 -41.984375 C -4.769531 -47.316406 -4.390625 -52.503906 -3.234375 -57.546875 C -2.078125 -62.597656 -0.28125 -67.019531 2.15625 -70.8125 C 5.289062 -75.550781 9.617188 -79.421875 15.140625 -82.421875 C 20.660156 -85.421875 26.351562 -86.59375 32.21875 -85.9375 C 35.257812 -85.632812 38.191406 -84.625 41.015625 -82.90625 C 43.835938 -81.1875 46.1875 -79.050781 48.0625 -76.5 C 49.945312 -73.957031 51.03125 -71.179688 51.3125 -68.171875 C 51.601562 -65.171875 50.820312 -62.128906 48.96875 -59.046875 C 47.1875 -56.222656 44.769531 -53.941406 41.71875 -52.203125 C 38.664062 -50.460938 35.617188 -49.035156 32.578125 -47.921875 C 30.546875 -47.210938 28.4375 -46.601562 26.25 -46.09375 C 24.0625 -45.59375 22.265625 -44.710938 20.859375 -43.453125 C 19.460938 -42.191406 18.921875 -40.023438 19.234375 -36.953125 C 19.546875 -33.773438 20.375 -31.941406 21.71875 -31.453125 C 23.0625 -30.972656 24.613281 -31.335938 26.375 -32.546875 C 28.144531 -33.753906 29.941406 -35.296875 31.765625 -37.171875 C 33.597656 -39.054688 35.257812 -40.847656 36.75 -42.546875 C 38.25 -44.242188 39.316406 -45.328125 39.953125 -45.796875 C 43.390625 -48.066406 46.046875 -48.644531 47.921875 -47.53125 C 49.796875 -46.425781 51.039062 -44.457031 51.65625 -41.625 C 52.269531 -38.800781 52.332031 -35.851562 51.84375 -32.78125 C 51.363281 -29.707031 50.503906 -27.28125 49.265625 -25.5 C 46.296875 -21.269531 42.289062 -17.960938 37.25 -15.578125 C 32.21875 -13.203125 27.128906 -11.984375 21.984375 -11.921875 Z M 25.78125 -58.046875 C 27 -57.898438 28.503906 -58.191406 30.296875 -58.921875 C 32.085938 -59.660156 33.535156 -60.632812 34.640625 -61.84375 C 35.742188 -63.050781 35.90625 -64.1875 35.125 -65.25 C 32.84375 -65.21875 30.851562 -64.570312 29.15625 -63.3125 C 27.46875 -62.050781 26.34375 -60.296875 25.78125 -58.046875 Z M 25.78125 -58.046875 "/></g></g></g><g fill="#000000" fill-opacity="1"><g transform="translate(368.827174, 236.882912)"><g><path d="M 16.0625 42.453125 C 14.25 39.671875 12.921875 36.554688 12.078125 33.109375 C 11.234375 29.660156 10.300781 26.398438 9.28125 23.328125 C 7.988281 18.648438 6.71875 13.9375 5.46875 9.1875 C 4.21875 4.4375 3.109375 -0.363281 2.140625 -5.21875 C 0.234375 -14.101562 -1.382812 -23.21875 -2.71875 -32.5625 C -4.0625 -41.914062 -4.757812 -51.203125 -4.8125 -60.421875 C -4.8125 -62.453125 -4.726562 -64.890625 -4.5625 -67.734375 C -4.40625 -70.578125 -3.925781 -73.328125 -3.125 -75.984375 C -2.332031 -78.640625 -1.023438 -80.546875 0.796875 -81.703125 C 2.617188 -82.984375 4.488281 -83.429688 6.40625 -83.046875 C 8.332031 -82.671875 10.125 -81.847656 11.78125 -80.578125 C 13.445312 -79.304688 14.660156 -77.84375 15.421875 -76.1875 C 20.660156 -79.132812 26.164062 -80.875 31.9375 -81.40625 C 37.707031 -81.9375 43.101562 -81.203125 48.125 -79.203125 C 53.15625 -77.203125 57.019531 -73.953125 59.71875 -69.453125 C 62.425781 -64.960938 63.320312 -59.164062 62.40625 -52.0625 C 61.207031 -43.832031 57.988281 -36.351562 52.75 -29.625 C 47.519531 -22.894531 41.375 -17.472656 34.3125 -13.359375 C 32.570312 -12.335938 31.335938 -11.671875 30.609375 -11.359375 C 29.890625 -11.054688 29.457031 -10.625 29.3125 -10.0625 C 29.175781 -9.507812 29.050781 -8.203125 28.9375 -6.140625 C 28.882812 -3.617188 29.1875 -1.007812 29.84375 1.6875 C 30.5 4.394531 30.984375 6.976562 31.296875 9.4375 C 31.890625 13.53125 32.460938 17.65625 33.015625 21.8125 C 33.566406 25.96875 33.726562 30.15625 33.5 34.375 C 33.382812 37.15625 32.8125 39.710938 31.78125 42.046875 C 30.757812 44.390625 29.390625 46.160156 27.671875 47.359375 C 25.960938 48.554688 24.097656 48.847656 22.078125 48.234375 C 20.066406 47.628906 18.0625 45.703125 16.0625 42.453125 Z M 24.078125 -37.984375 C 24.660156 -38.796875 25.640625 -40.222656 27.015625 -42.265625 C 28.390625 -44.304688 29.753906 -46.582031 31.109375 -49.09375 C 32.472656 -51.613281 33.46875 -54.003906 34.09375 -56.265625 C 34.71875 -58.535156 34.613281 -60.3125 33.78125 -61.59375 C 33.082031 -62.90625 32.050781 -63.503906 30.6875 -63.390625 C 29.332031 -63.273438 27.984375 -62.769531 26.640625 -61.875 C 25.296875 -60.976562 24.226562 -60.046875 23.4375 -59.078125 C 22.269531 -57.546875 21.707031 -55.644531 21.75 -53.375 C 21.789062 -51.113281 22.082031 -48.773438 22.625 -46.359375 C 23.164062 -43.941406 23.5625 -41.675781 23.8125 -39.5625 Z M 24.078125 -37.984375 "/></g></g></g><g fill="#000000" fill-opacity="1"><g transform="translate(446.572203, 223.286937)"><g><path d="M 17.15625 22.15625 C 14.394531 20.007812 11.875 16.523438 9.59375 11.703125 C 7.3125 6.890625 5.257812 1.320312 3.4375 -5 C 1.613281 -11.320312 0.0390625 -17.929688 -1.28125 -24.828125 C -2.613281 -31.722656 -3.71875 -38.390625 -4.59375 -44.828125 C -5.476562 -51.265625 -6.175781 -56.957031 -6.6875 -61.90625 C -6.894531 -63.78125 -7.195312 -66.535156 -7.59375 -70.171875 C -8 -73.816406 -8.347656 -77.859375 -8.640625 -82.296875 C -8.929688 -86.742188 -8.925781 -91.175781 -8.625 -95.59375 C -8.320312 -100.019531 -7.582031 -104.015625 -6.40625 -107.578125 C -5.238281 -111.140625 -3.378906 -113.863281 -0.828125 -115.75 C 1.710938 -117.632812 5.078125 -118.222656 9.265625 -117.515625 C 11.753906 -116.984375 13.644531 -115.421875 14.9375 -112.828125 C 16.226562 -110.242188 17.113281 -107.078125 17.59375 -103.328125 C 18.070312 -99.578125 18.269531 -95.71875 18.1875 -91.75 C 18.101562 -87.78125 17.9375 -84.097656 17.6875 -80.703125 C 17.445312 -77.316406 17.304688 -74.71875 17.265625 -72.90625 C 17.015625 -64.007812 17.710938 -54.851562 19.359375 -45.4375 C 21.003906 -36.019531 22.992188 -26.867188 25.328125 -17.984375 C 27.660156 -9.109375 29.617188 -0.863281 31.203125 6.75 C 31.640625 8.59375 31.632812 10.8125 31.1875 13.40625 C 30.738281 16 29.921875 18.359375 28.734375 20.484375 C 27.546875 22.609375 25.984375 23.960938 24.046875 24.546875 C 22.109375 25.128906 19.8125 24.332031 17.15625 22.15625 Z M 17.15625 22.15625 "/></g></g></g><g fill="#000000" fill-opacity="1"><g transform="translate(491.371826, 215.452423)"><g><path d="M 55.578125 -9.890625 C 53.523438 -10.015625 51.816406 -10.882812 50.453125 -12.5 C 49.097656 -14.125 48.007812 -16.09375 47.1875 -18.40625 C 46.363281 -20.71875 45.691406 -22.992188 45.171875 -25.234375 C 44.660156 -27.484375 44.28125 -29.304688 44.03125 -30.703125 C 42.1875 -26.898438 39.582031 -23.476562 36.21875 -20.4375 C 32.863281 -17.394531 29.175781 -15.191406 25.15625 -13.828125 C 21.144531 -12.460938 17.195312 -12.28125 13.3125 -13.28125 C 9.425781 -14.28125 5.925781 -16.84375 2.8125 -20.96875 C -0.207031 -25.226562 -2.269531 -30.015625 -3.375 -35.328125 C -4.488281 -40.640625 -4.753906 -46.070312 -4.171875 -51.625 C -3.597656 -57.1875 -2.382812 -62.226562 -0.53125 -66.75 C 1.257812 -70.894531 3.644531 -74.722656 6.625 -78.234375 C 9.601562 -81.742188 13.019531 -84.46875 16.875 -86.40625 C 20.726562 -88.34375 24.675781 -89.03125 28.71875 -88.46875 C 32.769531 -87.914062 36.75 -85.710938 40.65625 -81.859375 C 42.957031 -79.617188 44.894531 -77.617188 46.46875 -75.859375 C 48.039062 -74.097656 49.335938 -72.164062 50.359375 -70.0625 C 51.390625 -67.96875 52.253906 -65.25 52.953125 -61.90625 L 59.734375 -29.296875 C 59.960938 -28.023438 60.328125 -26.296875 60.828125 -24.109375 C 61.335938 -21.921875 61.628906 -19.722656 61.703125 -17.515625 C 61.785156 -15.316406 61.390625 -13.484375 60.515625 -12.015625 C 59.640625 -10.546875 57.992188 -9.835938 55.578125 -9.890625 Z M 26.546875 -45.4375 C 27.941406 -45.675781 29.253906 -46.710938 30.484375 -48.546875 C 31.722656 -50.378906 32.785156 -52.359375 33.671875 -54.484375 C 34.554688 -56.617188 35.082031 -58.242188 35.25 -59.359375 C 35.96875 -62.109375 35.71875 -64.394531 34.5 -66.21875 C 33.28125 -68.039062 31.382812 -68.128906 28.8125 -66.484375 C 27.0625 -65.460938 25.539062 -63.519531 24.25 -60.65625 C 22.957031 -57.789062 22.128906 -55.367188 21.765625 -53.390625 C 21.503906 -51.429688 21.59375 -49.53125 22.03125 -47.6875 C 22.46875 -45.851562 23.972656 -45.101562 26.546875 -45.4375 Z M 26.546875 -45.4375 "/></g></g></g><g fill="#000000" fill-opacity="1"><g transform="translate(561.447025, 203.19774)"><g><path d="M 20.65625 -4.140625 C 16.40625 -4.484375 12.726562 -5.96875 9.625 -8.59375 C 6.53125 -11.226562 3.9375 -14.609375 1.84375 -18.734375 C -0.25 -22.859375 -1.828125 -27.28125 -2.890625 -32 C -3.960938 -36.726562 -4.53125 -41.332031 -4.59375 -45.8125 C -4.65625 -50.300781 -4.253906 -54.175781 -3.390625 -57.4375 C -1.796875 -63.34375 0.75 -68.457031 4.25 -72.78125 C 7.75 -77.113281 12.359375 -80.378906 18.078125 -82.578125 C 21.554688 -83.898438 25.28125 -84.515625 29.25 -84.421875 C 33.21875 -84.335938 36.800781 -83.378906 40 -81.546875 C 43.195312 -79.710938 45.347656 -76.675781 46.453125 -72.4375 C 48.265625 -69.519531 48.769531 -66.941406 47.96875 -64.703125 C 47.164062 -62.472656 45.707031 -60.875 43.59375 -59.90625 C 41.488281 -58.945312 39.253906 -58.882812 36.890625 -59.71875 C 34.535156 -60.5625 32.664062 -62.539062 31.28125 -65.65625 C 29.3125 -64.59375 27.25 -62.492188 25.09375 -59.359375 C 22.945312 -56.234375 21 -52.660156 19.25 -48.640625 C 17.5 -44.617188 16.351562 -40.734375 15.8125 -36.984375 C 15.269531 -33.234375 15.695312 -30.109375 17.09375 -27.609375 C 18.644531 -24.890625 20.144531 -23.65625 21.59375 -23.90625 C 23.050781 -24.15625 24.457031 -25.203125 25.8125 -27.046875 C 27.164062 -28.898438 28.414062 -30.828125 29.5625 -32.828125 C 30.707031 -34.828125 31.691406 -36.203125 32.515625 -36.953125 C 34.273438 -40.609375 35.941406 -42.722656 37.515625 -43.296875 C 39.097656 -43.878906 40.492188 -43.4375 41.703125 -41.96875 C 42.921875 -40.507812 43.863281 -38.546875 44.53125 -36.078125 C 45.207031 -33.617188 45.59375 -31.078125 45.6875 -28.453125 C 45.789062 -25.835938 45.507812 -23.703125 44.84375 -22.046875 C 43.8125 -18.984375 42.019531 -16.03125 39.46875 -13.1875 C 36.914062 -10.34375 33.988281 -8.066406 30.6875 -6.359375 C 27.394531 -4.648438 24.050781 -3.910156 20.65625 -4.140625 Z M 20.65625 -4.140625 "/></g></g></g><g fill="#000000" fill-opacity="1"><g transform="translate(626.467159, 191.827083)"><g><path d="M 21.984375 -11.921875 C 16.359375 -11.898438 11.648438 -13.289062 7.859375 -16.09375 C 4.078125 -18.90625 1.191406 -22.59375 -0.796875 -27.15625 C -2.796875 -31.71875 -3.988281 -36.660156 -4.375 -41.984375 C -4.769531 -47.316406 -4.390625 -52.503906 -3.234375 -57.546875 C -2.078125 -62.597656 -0.28125 -67.019531 2.15625 -70.8125 C 5.289062 -75.550781 9.617188 -79.421875 15.140625 -82.421875 C 20.660156 -85.421875 26.351562 -86.59375 32.21875 -85.9375 C 35.257812 -85.632812 38.191406 -84.625 41.015625 -82.90625 C 43.835938 -81.1875 46.1875 -79.050781 48.0625 -76.5 C 49.945312 -73.957031 51.03125 -71.179688 51.3125 -68.171875 C 51.601562 -65.171875 50.820312 -62.128906 48.96875 -59.046875 C 47.1875 -56.222656 44.769531 -53.941406 41.71875 -52.203125 C 38.664062 -50.460938 35.617188 -49.035156 32.578125 -47.921875 C 30.546875 -47.210938 28.4375 -46.601562 26.25 -46.09375 C 24.0625 -45.59375 22.265625 -44.710938 20.859375 -43.453125 C 19.460938 -42.191406 18.921875 -40.023438 19.234375 -36.953125 C 19.546875 -33.773438 20.375 -31.941406 21.71875 -31.453125 C 23.0625 -30.972656 24.613281 -31.335938 26.375 -32.546875 C 28.144531 -33.753906 29.941406 -35.296875 31.765625 -37.171875 C 33.597656 -39.054688 35.257812 -40.847656 36.75 -42.546875 C 38.25 -44.242188 39.316406 -45.328125 39.953125 -45.796875 C 43.390625 -48.066406 46.046875 -48.644531 47.921875 -47.53125 C 49.796875 -46.425781 51.039062 -44.457031 51.65625 -41.625 C 52.269531 -38.800781 52.332031 -35.851562 51.84375 -32.78125 C 51.363281 -29.707031 50.503906 -27.28125 49.265625 -25.5 C 46.296875 -21.269531 42.289062 -17.960938 37.25 -15.578125 C 32.21875 -13.203125 27.128906 -11.984375 21.984375 -11.921875 Z M 25.78125 -58.046875 C 27 -57.898438 28.503906 -58.191406 30.296875 -58.921875 C 32.085938 -59.660156 33.535156 -60.632812 34.640625 -61.84375 C 35.742188 -63.050781 35.90625 -64.1875 35.125 -65.25 C 32.84375 -65.21875 30.851562 -64.570312 29.15625 -63.3125 C 27.46875 -62.050781 26.34375 -60.296875 25.78125 -58.046875 Z M 25.78125 -58.046875 "/></g></g></g></g></g><g clip-path="url(#638eafcb7c)"><g clip-path="url(#dba5b1229d)"><g clip-path="url(#a65c509ecb)"><g clip-path="url(#ab4cc51646)"><path fill="#000000" d="M 166.53125 188.960938 C 151.695312 188.945312 158.746094 192.375 18.492188 110.25 C 7.699219 103.929688 5.558594 101.214844 7.472656 98.097656 C 13.171875 88.796875 143.363281 168.324219 150.484375 172.597656 C 155.515625 175.617188 159.714844 180.074219 164.140625 184.042969 C 165.113281 184.921875 165.40625 186.566406 166.53125 188.960938 Z M 166.53125 188.960938 " fill-opacity="1" fill-rule="nonzero"/></g></g></g></g><g clip-path="url(#af9a468fa5)"><g clip-path="url(#e6f01d829d)"><g clip-path="url(#3ecd377688)"><g clip-path="url(#d7edea3574)"><path fill="#000000" d="M 266.746094 149.542969 C 259.941406 161.101562 257.210938 165.339844 253.859375 164.835938 C 239.140625 162.628906 307.496094 54.546875 318.742188 36.164062 C 323.382812 28.582031 329.445312 21.859375 335.058594 14.90625 C 336.394531 13.25 338.550781 12.261719 340.332031 10.96875 C 348.503906 15.402344 320.925781 57.535156 266.746094 149.542969 Z M 266.746094 149.542969 " fill-opacity="1" fill-rule="nonzero"/></g></g></g></g><g clip-path="url(#76ad951e88)"><g clip-path="url(#781d1fb00b)"><g clip-path="url(#cbeb7c5b98)"><g clip-path="url(#38aa3bcae0)"><path fill="#000000" d="M 144.199219 146.417969 C 141.664062 146.011719 139.152344 146.785156 133.246094 141.171875 C 90.292969 100.359375 94.53125 104.136719 90.347656 98.234375 C 87.640625 94.410156 91.757812 89.96875 95.929688 93.515625 C 104.265625 100.609375 133.117188 129.292969 138.691406 134.867188 C 141.609375 137.785156 144.367188 141.097656 144.199219 146.417969 Z M 144.199219 146.417969 " fill-opacity="1" fill-rule="nonzero"/></g></g></g></g><g clip-path="url(#856db69b71)"><g clip-path="url(#51712460a3)"><g clip-path="url(#211417bdab)"><g clip-path="url(#ff656973a1)"><path fill="#000000" d="M 92.976562 239.878906 C 57.726562 242.085938 53.9375 251.570312 50.785156 244.4375 C 48.363281 238.960938 54.84375 236.832031 61.960938 234.214844 C 86.160156 225.316406 107.992188 232.738281 98.222656 237.867188 C 96.367188 238.84375 94.289062 239.390625 92.976562 239.878906 Z M 92.976562 239.878906 " fill-opacity="1" fill-rule="nonzero"/></g></g></g></g><g clip-path="url(#98889c0d53)"><g clip-path="url(#d66532dc19)"><g clip-path="url(#f6338e54d4)"><g clip-path="url(#e6f81a08ca)"><path fill="#000000" d="M 295.402344 156.609375 C 293.648438 157.921875 291.292969 158.417969 288.9375 159.410156 C 287.65625 155.453125 286.769531 157.453125 325.890625 116.890625 C 346.226562 95.808594 339.957031 123.242188 295.402344 156.609375 Z M 295.402344 156.609375 " fill-opacity="1" fill-rule="nonzero"/></g></g></g></g><g clip-path="url(#902821cc76)"><g clip-path="url(#36cbe98419)"><g clip-path="url(#3c74a2bffc)"><g clip-path="url(#6fe7093feb)"><path fill="#000000" d="M 346.257812 163.039062 C 338.332031 169.667969 347.253906 164.734375 307.140625 186.316406 C 300.773438 189.742188 294.171875 185.109375 302.5 180.445312 C 328.207031 166.046875 342.59375 156.121094 346.257812 163.039062 Z M 346.257812 163.039062 " fill-opacity="1" fill-rule="nonzero"/></g></g></g></g><g clip-path="url(#cfe9e54fcb)"><g clip-path="url(#7d13999875)"><g clip-path="url(#28a54a86b0)"><g clip-path="url(#a64a70ad5b)"><path fill="#000000" d="M 119.722656 209.589844 C 113.882812 213.042969 113.523438 211.6875 79.628906 202.140625 C 69.53125 199.296875 73.804688 201.519531 69.351562 198.292969 C 70.304688 197.332031 71.105469 195.882812 72.25 195.519531 C 74.015625 194.960938 76.160156 194.617188 77.898438 195.09375 C 120.671875 206.800781 113.710938 205.15625 119.722656 209.589844 Z M 119.722656 209.589844 " fill-opacity="1" fill-rule="nonzero"/></g></g></g></g><g clip-path="url(#61bddc9430)"><g clip-path="url(#64a414a22c)"><g clip-path="url(#c348685f69)"><g clip-path="url(#24fe213dc9)"><path fill="#000000" d="M 246.96875 98.429688 C 248.300781 94.453125 251.980469 93.589844 254.136719 94.511719 C 257.082031 95.773438 255.082031 100.4375 248.636719 120.171875 C 247.914062 122.378906 244.890625 123.902344 243.949219 123.625 C 237.792969 121.8125 243.144531 109.816406 246.96875 98.429688 Z M 246.96875 98.429688 " fill-opacity="1" fill-rule="nonzero"/></g></g></g></g><g clip-path="url(#233bf0c481)"><g clip-path="url(#44353cd303)"><g clip-path="url(#30d49c1443)"><g clip-path="url(#58303089cd)"><path fill="#000000" d="M 994.675781 343.597656 L 918.09375 320.882812 L 934.09375 342.902344 L 897.359375 346.320312 L 799.113281 355.429688 L 750.003906 359.996094 C 733.628906 361.34375 717.152344 363.554688 701.347656 363.625 C 690.171875 363.601562 679.082031 362.335938 669.210938 358.332031 C 659.625 354.402344 650.890625 347.386719 645.707031 338.59375 C 643.109375 334.210938 641.4375 329.417969 640.980469 324.605469 C 640.570312 319.796875 641.449219 314.796875 643.46875 310.414062 C 645.492188 306.03125 648.476562 302.0625 652.480469 298.925781 C 656.507812 295.8125 661.121094 293.238281 666.136719 291.269531 C 676.21875 287.464844 687.328125 285.542969 698.5 285.019531 C 704.089844 284.679688 709.71875 284.832031 715.292969 285.121094 C 720.753906 285.484375 726.054688 286.3125 729.855469 288.351562 C 731.722656 289.386719 733.160156 290.636719 734.164062 292.207031 C 735.183594 293.875 735.667969 295.53125 735.714844 297.347656 C 735.742188 300.980469 733.398438 305.371094 730.058594 309.136719 C 726.691406 312.917969 722.480469 316.277344 717.945312 318.941406 C 716.828125 319.648438 715.640625 320.21875 714.492188 320.835938 L 710.601562 322.601562 L 702.777344 326.140625 C 618.574219 363.515625 521.800781 365.160156 435.125 405.121094 L 431.074219 406.929688 L 427.121094 408.988281 L 419.226562 413.113281 C 414.050781 415.726562 408.460938 418.78125 403.546875 422.710938 C 398.625 426.605469 393.9375 430.984375 390.226562 436.5625 C 388.3125 439.285156 386.808594 442.460938 385.644531 445.832031 C 384.566406 449.28125 384.164062 453.082031 384.550781 456.875 C 385.125 460.660156 386.394531 464.253906 388.449219 467.398438 C 389.378906 469.011719 390.765625 470.433594 392.035156 471.824219 C 393.507812 473.042969 394.921875 474.371094 396.59375 475.222656 C 403.1875 479.097656 410.347656 479.601562 416.785156 479.226562 C 423.296875 478.785156 429.449219 477.324219 435.332031 475.28125 C 441.230469 473.265625 446.867188 470.417969 452 467.730469 C 462.484375 462.222656 473.046875 456.003906 482.199219 447.476562 C 486.804688 443.234375 490.894531 438.4375 494.347656 432.949219 C 497.808594 427.433594 500.191406 421.351562 501.582031 415.035156 C 502.984375 408.710938 503.308594 402.066406 502.148438 395.472656 C 501.046875 388.785156 498.269531 382.328125 493.929688 377.066406 C 489.683594 371.730469 483.8125 367.746094 478.175781 365.023438 C 472.433594 362.253906 466.605469 360.285156 460.925781 358.652344 C 415.4375 344.894531 367 341.683594 320.097656 348.386719 C 314.253906 349.382812 308.378906 350.164062 302.578125 351.367188 C 296.808594 352.679688 290.96875 353.761719 285.242188 355.253906 C 279.550781 356.871094 273.769531 358.253906 268.136719 360.066406 L 255.460938 364.265625 C 251.546875 365.589844 247.734375 367.242188 243.875 368.710938 C 234.96875 361.824219 225.769531 355.53125 216.117188 349.476562 C 213.28125 350.804688 210.410156 352.03125 207.605469 353.445312 C 218.167969 359.742188 228.304688 366.46875 237.847656 373.347656 L 230.058594 376.898438 C 225.152344 373.507812 220.101562 370.152344 214.945312 366.933594 C 209.839844 363.820312 204.617188 360.785156 199.25 357.808594 L 190.941406 362.222656 C 201.871094 367.96875 212.332031 374.089844 222.257812 380.464844 L 214.664062 384.449219 C 209.578125 381.339844 204.363281 378.28125 199.027344 375.320312 C 193.757812 372.480469 188.382812 369.753906 182.859375 367.085938 L 174.773438 371.949219 C 186.046875 377.136719 196.789062 382.578125 207.0625 388.457031 C 204.519531 389.890625 202.035156 391.449219 199.523438 392.945312 L 203.246094 399.167969 C 205.710938 397.71875 208.117188 396.199219 210.601562 394.796875 C 210.46875 406.738281 210.9375 418.507812 211.851562 429.871094 L 218.308594 426.019531 C 217.964844 420.25 217.722656 414.394531 217.640625 408.472656 C 217.632812 402.683594 217.746094 396.835938 218.011719 390.902344 L 225.421875 387.011719 C 224.667969 398.976562 224.441406 410.671875 224.742188 422.117188 L 231.410156 418.589844 C 231.386719 412.8125 231.476562 406.964844 231.71875 401.054688 C 232.007812 395.253906 232.464844 389.445312 233.035156 383.539062 L 240.640625 380.054688 C 239.257812 391.980469 238.359375 403.585938 238.074219 415.089844 C 240.308594 413.960938 242.648438 412.988281 244.925781 411.914062 C 245.453125 401.371094 246.40625 390.601562 247.984375 380.074219 C 251.707031 378.652344 255.390625 377.085938 259.152344 375.761719 L 269.941406 372.195312 C 275.328125 370.242188 280.945312 369.058594 286.433594 367.460938 C 297.511719 364.597656 308.742188 362.328125 320.070312 360.636719 C 365.34375 353.933594 412.128906 356.804688 455.988281 369.835938 C 466.96875 372.890625 477.539062 376.757812 483.761719 383.722656 C 486.902344 387.316406 489.042969 391.730469 490.039062 396.394531 C 490.988281 401.140625 490.976562 406.285156 490.027344 411.277344 C 489.039062 416.28125 487.214844 421.179688 484.679688 425.605469 C 482.125 429.957031 478.632812 434.132812 474.820312 437.835938 C 467.066406 445.285156 457.519531 451.167969 447.445312 456.484375 C 444.945312 457.792969 442.324219 459.160156 439.84375 460.363281 C 437.417969 461.523438 434.945312 462.628906 432.398438 463.515625 C 427.347656 465.339844 422.105469 466.707031 416.996094 467.144531 C 411.953125 467.554688 406.949219 467.132812 403.351562 465.253906 C 401.519531 464.363281 400.160156 463.050781 398.957031 461.558594 C 397.925781 459.902344 396.871094 458.0625 396.632812 456.152344 C 395.050781 448.617188 401.867188 439.253906 410.121094 432.859375 C 414.300781 429.464844 418.726562 426.828125 423.988281 424.210938 C 429.097656 421.652344 434.015625 418.734375 439.257812 416.460938 C 459.921875 406.640625 481.804688 399.269531 504.035156 393.03125 C 526.28125 386.78125 548.945312 381.675781 571.714844 376.613281 C 617.183594 366.589844 663.535156 356.523438 707.144531 337.371094 L 715.265625 333.6875 L 719.332031 331.84375 C 720.722656 331.125 722.222656 330.402344 723.585938 329.574219 C 729.148438 326.328125 734.261719 322.398438 738.734375 317.457031 C 740.957031 314.972656 743.035156 312.234375 744.667969 309 C 746.328125 305.828125 747.628906 302.097656 747.703125 297.9375 C 748.050781 289.511719 742.75 281.5625 735.933594 277.96875 C 729.210938 274.332031 722.519531 273.605469 716.394531 273.101562 C 710.28125 272.742188 704.242188 272.605469 698.144531 272.9375 C 686.003906 273.492188 673.769531 275.488281 661.933594 279.898438 C 656.042969 282.214844 650.296875 285.265625 645.039062 289.335938 C 639.824219 293.457031 635.367188 298.984375 632.480469 305.25 C 631.839844 306.851562 631.082031 308.421875 630.589844 310.070312 L 629.414062 315.082031 C 628.722656 318.46875 628.65625 321.964844 628.867188 325.398438 C 629.472656 332.332031 631.839844 338.871094 635.199219 344.589844 C 642 356.066406 652.546875 364.46875 664.585938 369.46875 C 676.53125 374.304688 689.164062 375.628906 701.28125 375.671875 C 709.886719 375.671875 718.324219 375.007812 726.597656 374.257812 L 751.300781 371.960938 L 800.664062 367.378906 L 899.378906 358.199219 L 935.484375 354.851562 L 923.621094 380.027344 Z M 994.675781 343.597656 " fill-opacity="1" fill-rule="nonzero"/></g></g></g></g><g transform="matrix(1, 0, 0, 1, 522, 320)"><g clip-path="url(#91211bdf4d)"><g fill="#000000" fill-opacity="1"><g transform="translate(30.325392, 229.981227)"><g><path d="M 27.140625 -5.765625 C 24.671875 -5.765625 21.910156 -5.8125 18.859375 -5.90625 C 15.816406 -6 12.878906 -6.414062 10.046875 -7.15625 C 7.210938 -7.894531 4.84375 -9.222656 2.9375 -11.140625 C 0.320312 -13.828125 -0.925781 -16.472656 -0.8125 -19.078125 C -0.695312 -21.679688 0.394531 -23.953125 2.46875 -25.890625 C 4.550781 -27.828125 7.179688 -29.015625 10.359375 -29.453125 C 12.328125 -29.796875 14.585938 -29.738281 17.140625 -29.28125 C 19.691406 -28.832031 22.257812 -28.441406 24.84375 -28.109375 C 27.425781 -27.773438 29.773438 -27.992188 31.890625 -28.765625 C 34.015625 -29.535156 35.609375 -31.359375 36.671875 -34.234375 C 37.910156 -37.367188 37.707031 -39.941406 36.0625 -41.953125 C 34.425781 -43.972656 32.242188 -45.5625 29.515625 -46.71875 C 26.785156 -47.875 24.300781 -48.757812 22.0625 -49.375 C 13.0625 -51.957031 6.035156 -56.265625 0.984375 -62.296875 C -4.054688 -68.335938 -6.738281 -76.160156 -7.0625 -85.765625 C -7.394531 -95.367188 -5.046875 -104.125 -0.015625 -112.03125 C 5.003906 -119.9375 11.765625 -125.929688 20.265625 -130.015625 C 24.398438 -132.078125 29.046875 -133.613281 34.203125 -134.625 C 39.367188 -135.644531 44.1875 -135.253906 48.65625 -133.453125 C 51.195312 -132.429688 53.28125 -130.796875 54.90625 -128.546875 C 56.53125 -126.304688 57.25 -123.957031 57.0625 -121.5 C 56.875 -119.050781 55.1875 -116.992188 52 -115.328125 C 48.695312 -113.617188 45.441406 -111.5 42.234375 -108.96875 C 39.023438 -106.445312 36.273438 -103.691406 33.984375 -100.703125 C 31.691406 -97.722656 30.207031 -94.625 29.53125 -91.40625 C 28.863281 -88.195312 29.304688 -85.039062 30.859375 -81.9375 C 32.421875 -78.84375 35.507812 -75.960938 40.125 -73.296875 C 43.007812 -71.546875 45.921875 -70 48.859375 -68.65625 C 51.796875 -67.3125 54.59375 -65.773438 57.25 -64.046875 C 59.914062 -62.328125 62.242188 -59.957031 64.234375 -56.9375 C 66.796875 -53.21875 68.570312 -49 69.5625 -44.28125 C 70.5625 -39.570312 70.546875 -34.992188 69.515625 -30.546875 C 68.441406 -25.742188 66.441406 -21.738281 63.515625 -18.53125 C 60.597656 -15.320312 57.132812 -12.800781 53.125 -10.96875 C 49.113281 -9.144531 44.875 -7.84375 40.40625 -7.0625 C 35.9375 -6.28125 31.515625 -5.847656 27.140625 -5.765625 Z M 27.140625 -5.765625 "/></g></g></g><g fill="#000000" fill-opacity="1"><g transform="translate(112.936856, 215.534215)"><g><path d="M 45.109375 -13.953125 C 40.378906 -8.859375 35.160156 -5.921875 29.453125 -5.140625 C 23.742188 -4.367188 18.351562 -5.476562 13.28125 -8.46875 C 8.207031 -11.46875 4.144531 -15.847656 1.09375 -21.609375 C -1.519531 -27.003906 -3.332031 -32.894531 -4.34375 -39.28125 C -5.351562 -45.675781 -5.191406 -52 -3.859375 -58.25 C -2.535156 -64.5 0.125 -70 4.125 -74.75 C 6.832031 -77.914062 10.273438 -80.394531 14.453125 -82.1875 C 18.628906 -83.988281 22.90625 -84.90625 27.28125 -84.9375 C 31.664062 -84.96875 35.566406 -83.878906 38.984375 -81.671875 C 42.410156 -79.460938 44.679688 -75.816406 45.796875 -70.734375 C 48.304688 -66.671875 50.300781 -62.15625 51.78125 -57.1875 C 53.269531 -52.226562 54.101562 -47.148438 54.28125 -41.953125 C 54.46875 -36.753906 53.832031 -31.722656 52.375 -26.859375 C 50.914062 -21.992188 48.492188 -17.691406 45.109375 -13.953125 Z M 35.03125 -34.96875 C 36.164062 -35.5 36.878906 -36.710938 37.171875 -38.609375 C 37.460938 -40.515625 37.507812 -42.660156 37.3125 -45.046875 C 37.113281 -47.429688 36.804688 -49.648438 36.390625 -51.703125 C 35.972656 -53.765625 35.65625 -55.117188 35.4375 -55.765625 C 34.582031 -54.828125 33.8125 -53.738281 33.125 -52.5 C 32.445312 -51.257812 31.929688 -50.046875 31.578125 -48.859375 C 30.253906 -44.234375 29.769531 -40.4375 30.125 -37.46875 C 30.476562 -34.5 32.113281 -33.664062 35.03125 -34.96875 Z M 35.03125 -34.96875 "/></g></g></g><g fill="#000000" fill-opacity="1"><g transform="translate(179.680524, 203.862147)"><g><path d="M 19.375 -3.90625 C 15.394531 -4.21875 11.953125 -5.609375 9.046875 -8.078125 C 6.140625 -10.546875 3.703125 -13.710938 1.734375 -17.578125 C -0.234375 -21.453125 -1.71875 -25.609375 -2.71875 -30.046875 C -3.726562 -34.484375 -4.257812 -38.800781 -4.3125 -43 C -4.375 -47.207031 -4 -50.84375 -3.1875 -53.90625 C -1.675781 -59.445312 0.710938 -64.242188 3.984375 -68.296875 C 7.265625 -72.359375 11.59375 -75.421875 16.96875 -77.484375 C 20.238281 -78.734375 23.734375 -79.316406 27.453125 -79.234375 C 31.171875 -79.160156 34.53125 -78.257812 37.53125 -76.53125 C 40.53125 -74.8125 42.546875 -71.960938 43.578125 -67.984375 C 45.296875 -65.253906 45.773438 -62.835938 45.015625 -60.734375 C 44.265625 -58.628906 42.898438 -57.125 40.921875 -56.21875 C 38.941406 -55.3125 36.84375 -55.253906 34.625 -56.046875 C 32.40625 -56.835938 30.648438 -58.695312 29.359375 -61.625 C 27.515625 -60.625 25.582031 -58.648438 23.5625 -55.703125 C 21.539062 -52.765625 19.707031 -49.410156 18.0625 -45.640625 C 16.414062 -41.867188 15.335938 -38.226562 14.828125 -34.71875 C 14.328125 -31.207031 14.734375 -28.265625 16.046875 -25.890625 C 17.503906 -23.347656 18.910156 -22.195312 20.265625 -22.4375 C 21.628906 -22.675781 22.945312 -23.664062 24.21875 -25.40625 C 25.488281 -27.144531 26.664062 -28.945312 27.75 -30.8125 C 28.832031 -32.6875 29.757812 -33.972656 30.53125 -34.671875 C 32.164062 -38.109375 33.722656 -40.09375 35.203125 -40.625 C 36.691406 -41.164062 38.003906 -40.753906 39.140625 -39.390625 C 40.273438 -38.023438 41.160156 -36.1875 41.796875 -33.875 C 42.429688 -31.5625 42.796875 -29.175781 42.890625 -26.71875 C 42.984375 -24.257812 42.710938 -22.242188 42.078125 -20.671875 C 41.117188 -17.804688 39.4375 -15.039062 37.03125 -12.375 C 34.632812 -9.707031 31.890625 -7.566406 28.796875 -5.953125 C 25.710938 -4.347656 22.570312 -3.664062 19.375 -3.90625 Z M 19.375 -3.90625 "/></g></g></g><g fill="#000000" fill-opacity="1"><g transform="translate(240.698712, 193.191346)"><g><path d="M -9.5 -78.421875 C -11.226562 -80.597656 -12.046875 -82.875 -11.953125 -85.25 C -11.859375 -87.625 -11.171875 -89.65625 -9.890625 -91.34375 C -8.617188 -93.03125 -6.953125 -93.9375 -4.890625 -94.0625 C -2.835938 -94.195312 -0.707031 -93.113281 1.5 -90.8125 C 3.8125 -88.507812 4.925781 -86.113281 4.84375 -83.625 C 4.769531 -81.132812 3.984375 -79.03125 2.484375 -77.3125 C 0.992188 -75.601562 -0.863281 -74.71875 -3.09375 -74.65625 C -5.332031 -74.601562 -7.46875 -75.859375 -9.5 -78.421875 Z M 15.71875 -4.59375 C 13.507812 -2.414062 11.53125 -1.507812 9.78125 -1.875 C 8.03125 -2.238281 6.515625 -3.375 5.234375 -5.28125 C 3.953125 -7.195312 2.832031 -9.421875 1.875 -11.953125 C 0.925781 -14.492188 0.191406 -16.925781 -0.328125 -19.25 C -0.847656 -21.570312 -1.257812 -23.269531 -1.5625 -24.34375 C -2.320312 -28.019531 -2.945312 -31.753906 -3.4375 -35.546875 C -3.9375 -39.347656 -4.394531 -43.125 -4.8125 -46.875 C -5.050781 -48.851562 -5.382812 -51.066406 -5.8125 -53.515625 C -6.25 -55.972656 -6.414062 -58.363281 -6.3125 -60.6875 C -6.21875 -63.007812 -5.523438 -65.015625 -4.234375 -66.703125 C -2.171875 -69.648438 -0.242188 -71.140625 1.546875 -71.171875 C 3.335938 -71.203125 4.945312 -70.332031 6.375 -68.5625 C 7.8125 -66.789062 9.0625 -64.617188 10.125 -62.046875 C 11.195312 -59.484375 12.09375 -56.941406 12.8125 -54.421875 C 13.539062 -51.910156 14.070312 -50.007812 14.40625 -48.71875 C 15.738281 -44.34375 16.628906 -39.914062 17.078125 -35.4375 C 17.523438 -30.96875 17.804688 -26.4375 17.921875 -21.84375 C 17.972656 -20.289062 18.078125 -18.398438 18.234375 -16.171875 C 18.398438 -13.953125 18.359375 -11.804688 18.109375 -9.734375 C 17.859375 -7.671875 17.0625 -5.957031 15.71875 -4.59375 Z M 15.71875 -4.59375 "/></g></g></g><g fill="#000000" fill-opacity="1"><g transform="translate(269.817729, 188.099041)"><g><path d="M 52.15625 -9.296875 C 50.226562 -9.398438 48.625 -10.210938 47.34375 -11.734375 C 46.070312 -13.253906 45.050781 -15.097656 44.28125 -17.265625 C 43.507812 -19.441406 42.878906 -21.582031 42.390625 -23.6875 C 41.910156 -25.800781 41.554688 -27.515625 41.328125 -28.828125 C 39.597656 -25.242188 37.15625 -22.023438 34 -19.171875 C 30.84375 -16.328125 27.378906 -14.265625 23.609375 -12.984375 C 19.835938 -11.710938 16.128906 -11.539062 12.484375 -12.46875 C 8.835938 -13.394531 5.550781 -15.800781 2.625 -19.6875 C -0.207031 -23.6875 -2.140625 -28.179688 -3.171875 -33.171875 C -4.210938 -38.160156 -4.457031 -43.253906 -3.90625 -48.453125 C -3.363281 -53.660156 -2.226562 -58.390625 -0.5 -62.640625 C 1.175781 -66.535156 3.410156 -70.128906 6.203125 -73.421875 C 9.003906 -76.722656 12.210938 -79.273438 15.828125 -81.078125 C 19.441406 -82.890625 23.148438 -83.539062 26.953125 -83.03125 C 30.765625 -82.519531 34.5 -80.445312 38.15625 -76.8125 C 40.332031 -74.71875 42.148438 -72.84375 43.609375 -71.1875 C 45.078125 -69.539062 46.289062 -67.734375 47.25 -65.765625 C 48.21875 -63.796875 49.035156 -61.238281 49.703125 -58.09375 L 56.0625 -27.5 C 56.269531 -26.300781 56.609375 -24.675781 57.078125 -22.625 C 57.554688 -20.570312 57.832031 -18.515625 57.90625 -16.453125 C 57.988281 -14.390625 57.617188 -12.664062 56.796875 -11.28125 C 55.972656 -9.894531 54.425781 -9.234375 52.15625 -9.296875 Z M 24.90625 -42.640625 C 26.226562 -42.867188 27.46875 -43.84375 28.625 -45.5625 C 29.78125 -47.28125 30.769531 -49.140625 31.59375 -51.140625 C 32.425781 -53.140625 32.925781 -54.65625 33.09375 -55.6875 C 33.757812 -58.269531 33.519531 -60.421875 32.375 -62.140625 C 31.226562 -63.859375 29.445312 -63.941406 27.03125 -62.390625 C 25.40625 -61.441406 23.984375 -59.625 22.765625 -56.9375 C 21.546875 -54.25 20.765625 -51.972656 20.421875 -50.109375 C 20.171875 -48.273438 20.25 -46.492188 20.65625 -44.765625 C 21.070312 -43.035156 22.488281 -42.328125 24.90625 -42.640625 Z M 24.90625 -42.640625 "/></g></g></g><g fill="#000000" fill-opacity="1"><g transform="translate(335.579878, 176.59862)"><g><path d="M 16.109375 20.78125 C 13.503906 18.757812 11.132812 15.492188 9 10.984375 C 6.863281 6.472656 4.9375 1.25 3.21875 -4.6875 C 1.507812 -10.625 0.0351562 -16.828125 -1.203125 -23.296875 C -2.453125 -29.765625 -3.488281 -36.019531 -4.3125 -42.0625 C -5.144531 -48.113281 -5.804688 -53.453125 -6.296875 -58.078125 C -6.484375 -59.847656 -6.757812 -62.441406 -7.125 -65.859375 C -7.488281 -69.273438 -7.8125 -73.066406 -8.09375 -77.234375 C -8.382812 -81.410156 -8.390625 -85.570312 -8.109375 -89.71875 C -7.828125 -93.875 -7.128906 -97.617188 -6.015625 -100.953125 C -4.910156 -104.296875 -3.164062 -106.851562 -0.78125 -108.625 C 1.601562 -110.394531 4.769531 -110.941406 8.71875 -110.265625 C 11.039062 -109.785156 12.804688 -108.328125 14.015625 -105.890625 C 15.234375 -103.460938 16.066406 -100.488281 16.515625 -96.96875 C 16.960938 -93.445312 17.144531 -89.828125 17.0625 -86.109375 C 16.988281 -82.390625 16.832031 -78.9375 16.59375 -75.75 C 16.363281 -72.5625 16.226562 -70.117188 16.1875 -68.421875 C 15.96875 -60.054688 16.628906 -51.457031 18.171875 -42.625 C 19.722656 -33.789062 21.59375 -25.207031 23.78125 -16.875 C 25.96875 -8.550781 27.796875 -0.8125 29.265625 6.34375 C 29.679688 8.070312 29.679688 10.148438 29.265625 12.578125 C 28.847656 15.015625 28.082031 17.226562 26.96875 19.21875 C 25.851562 21.21875 24.390625 22.488281 22.578125 23.03125 C 20.765625 23.570312 18.609375 22.820312 16.109375 20.78125 Z M 16.109375 20.78125 "/></g></g></g></g></g></g></g></g></svg>