<svg xmlns="http://www.w3.org/2000/svg" xmlns:xlink="http://www.w3.org/1999/xlink" width="1328" zoomAndPan="magnify" viewBox="0 0 996 552.000001" height="736" preserveAspectRatio="xMidYMid meet" version="1.0"><defs><g/><clipPath id="c0e42dcbfb"><path d="M 2 0 L 995.097656 0 L 995.097656 551 L 2 551 Z M 2 0 " clip-rule="nonzero"/></clipPath><clipPath id="4aaa60a43e"><rect x="0" width="712" y="0" height="382"/></clipPath><clipPath id="060e0b0e09"><path d="M 4 97 L 164 97 L 164 188 L 4 188 Z M 4 97 " clip-rule="nonzero"/></clipPath><clipPath id="078d93849f"><path d="M -1.09375 78.882812 L 345.480469 9.535156 L 380.742188 185.761719 L 34.167969 255.105469 Z M -1.09375 78.882812 " clip-rule="nonzero"/></clipPath><clipPath id="6dd6f8d194"><path d="M -1.09375 78.882812 L 345.480469 9.535156 L 380.742188 185.761719 L 34.167969 255.105469 Z M -1.09375 78.882812 " clip-rule="nonzero"/></clipPath><clipPath id="bc3808ef33"><path d="M 248 11 L 339 11 L 339 164 L 248 164 Z M 248 11 " clip-rule="nonzero"/></clipPath><clipPath id="db44cf3a3a"><path d="M -1.09375 78.882812 L 345.480469 9.535156 L 380.742188 185.761719 L 34.167969 255.105469 Z M -1.09375 78.882812 " clip-rule="nonzero"/></clipPath><clipPath id="4896919f6a"><path d="M -1.09375 78.882812 L 345.480469 9.535156 L 380.742188 185.761719 L 34.167969 255.105469 Z M -1.09375 78.882812 " clip-rule="nonzero"/></clipPath><clipPath id="b4ec8cf402"><path d="M 87 92 L 142 92 L 142 146 L 87 146 Z M 87 92 " clip-rule="nonzero"/></clipPath><clipPath id="2a3704f711"><path d="M -1.09375 78.882812 L 345.480469 9.535156 L 380.742188 185.761719 L 34.167969 255.105469 Z M -1.09375 78.882812 " clip-rule="nonzero"/></clipPath><clipPath id="e6b9438c31"><path d="M -1.09375 78.882812 L 345.480469 9.535156 L 380.742188 185.761719 L 34.167969 255.105469 Z M -1.09375 78.882812 " clip-rule="nonzero"/></clipPath><clipPath id="c65b0fc48f"><path d="M 47 228 L 99 228 L 99 246 L 47 246 Z M 47 228 " clip-rule="nonzero"/></clipPath><clipPath id="19568305dd"><path d="M -1.09375 78.882812 L 345.480469 9.535156 L 380.742188 185.761719 L 34.167969 255.105469 Z M -1.09375 78.882812 " clip-rule="nonzero"/></clipPath><clipPath id="395061f501"><path d="M -1.09375 78.882812 L 345.480469 9.535156 L 380.742188 185.761719 L 34.167969 255.105469 Z M -1.09375 78.882812 " clip-rule="nonzero"/></clipPath><clipPath id="928a05407b"><path d="M 285 108 L 334 108 L 334 159 L 285 159 Z M 285 108 " clip-rule="nonzero"/></clipPath><clipPath id="71194033f2"><path d="M -1.09375 78.882812 L 345.480469 9.535156 L 380.742188 185.761719 L 34.167969 255.105469 Z M -1.09375 78.882812 " clip-rule="nonzero"/></clipPath><clipPath id="b9e09edb48"><path d="M -1.09375 78.882812 L 345.480469 9.535156 L 380.742188 185.761719 L 34.167969 255.105469 Z M -1.09375 78.882812 " clip-rule="nonzero"/></clipPath><clipPath id="c65dfb4196"><path d="M 295 159 L 343 159 L 343 187 L 295 187 Z M 295 159 " clip-rule="nonzero"/></clipPath><clipPath id="40ee347951"><path d="M -1.09375 78.882812 L 345.480469 9.535156 L 380.742188 185.761719 L 34.167969 255.105469 Z M -1.09375 78.882812 " clip-rule="nonzero"/></clipPath><clipPath id="27f285eec3"><path d="M -1.09375 78.882812 L 345.480469 9.535156 L 380.742188 185.761719 L 34.167969 255.105469 Z M -1.09375 78.882812 " clip-rule="nonzero"/></clipPath><clipPath id="66edb4c610"><path d="M 66 193 L 118 193 L 118 211 L 66 211 Z M 66 193 " clip-rule="nonzero"/></clipPath><clipPath id="51eb89c95b"><path d="M -1.09375 78.882812 L 345.480469 9.535156 L 380.742188 185.761719 L 34.167969 255.105469 Z M -1.09375 78.882812 " clip-rule="nonzero"/></clipPath><clipPath id="43f6d2a7e5"><path d="M -1.09375 78.882812 L 345.480469 9.535156 L 380.742188 185.761719 L 34.167969 255.105469 Z M -1.09375 78.882812 " clip-rule="nonzero"/></clipPath><clipPath id="1fca03ab40"><path d="M 238 93 L 253 93 L 253 124 L 238 124 Z M 238 93 " clip-rule="nonzero"/></clipPath><clipPath id="5a6d163097"><path d="M -1.09375 78.882812 L 345.480469 9.535156 L 380.742188 185.761719 L 34.167969 255.105469 Z M -1.09375 78.882812 " clip-rule="nonzero"/></clipPath><clipPath id="bc513b1f55"><path d="M -1.09375 78.882812 L 345.480469 9.535156 L 380.742188 185.761719 L 34.167969 255.105469 Z M -1.09375 78.882812 " clip-rule="nonzero"/></clipPath><clipPath id="88e7eb2c6f"><path d="M 171 273 L 993 273 L 993 481 L 171 481 Z M 171 273 " clip-rule="nonzero"/></clipPath><clipPath id="b12926b2a2"><path d="M 663.191406 -44.675781 L 992.855469 343.398438 L 495.207031 766.144531 L 165.542969 378.070312 Z M 663.191406 -44.675781 " clip-rule="nonzero"/></clipPath><clipPath id="75091b887e"><path d="M 663.191406 -44.675781 L 992.855469 343.398438 L 495.207031 766.144531 L 165.542969 378.070312 Z M 663.191406 -44.675781 " clip-rule="nonzero"/></clipPath><clipPath id="48a3c40c1c"><rect x="0" width="393" y="0" height="231"/></clipPath><clipPath id="0803b0f356"><rect x="0" width="994" y="0" height="551"/></clipPath></defs><g clip-path="url(#c0e42dcbfb)"><g transform="matrix(1, 0, 0, 1, 2, 0.000000000000054093)"><g clip-path="url(#0803b0f356)"><g transform="matrix(1, 0, 0, 1, 152, 43)"><g clip-path="url(#4aaa60a43e)"><g fill="#fffbee" fill-opacity="1"><g transform="translate(32.397119, 295.71747)"><g><path d="M 28.9375 -6.140625 C 26.289062 -6.148438 23.34375 -6.203125 20.09375 -6.296875 C 16.851562 -6.390625 13.722656 -6.832031 10.703125 -7.625 C 7.691406 -8.414062 5.164062 -9.832031 3.125 -11.875 C 0.34375 -14.738281 -0.984375 -17.554688 -0.859375 -20.328125 C -0.734375 -23.109375 0.429688 -25.53125 2.640625 -27.59375 C 4.847656 -29.65625 7.644531 -30.921875 11.03125 -31.390625 C 13.125 -31.765625 15.53125 -31.707031 18.25 -31.21875 C 20.96875 -30.726562 23.707031 -30.304688 26.46875 -29.953125 C 29.226562 -29.597656 31.734375 -29.828125 33.984375 -30.640625 C 36.242188 -31.453125 37.941406 -33.398438 39.078125 -36.484375 C 40.398438 -39.828125 40.179688 -42.570312 38.421875 -44.71875 C 36.671875 -46.875 34.34375 -48.5625 31.4375 -49.78125 C 28.539062 -51.007812 25.894531 -51.953125 23.5 -52.609375 C 13.914062 -55.367188 6.429688 -59.960938 1.046875 -66.390625 C -4.328125 -72.816406 -7.191406 -81.15625 -7.546875 -91.40625 C -7.898438 -101.632812 -5.394531 -110.960938 -0.03125 -119.390625 C 5.320312 -127.816406 12.53125 -134.191406 21.59375 -138.515625 C 25.988281 -140.734375 30.9375 -142.382812 36.4375 -143.46875 C 41.945312 -144.550781 47.085938 -144.125 51.859375 -142.1875 C 54.554688 -141.113281 56.769531 -139.378906 58.5 -136.984375 C 60.238281 -134.585938 61.003906 -132.085938 60.796875 -129.484375 C 60.597656 -126.878906 58.804688 -124.675781 55.421875 -122.875 C 51.890625 -121.070312 48.414062 -118.820312 45 -116.125 C 41.582031 -113.425781 38.648438 -110.484375 36.203125 -107.296875 C 33.765625 -104.117188 32.1875 -100.816406 31.46875 -97.390625 C 30.757812 -93.972656 31.234375 -90.613281 32.890625 -87.3125 C 34.546875 -84.019531 37.835938 -80.945312 42.765625 -78.09375 C 45.835938 -76.238281 48.9375 -74.59375 52.0625 -73.15625 C 55.195312 -71.71875 58.179688 -70.078125 61.015625 -68.234375 C 63.859375 -66.398438 66.332031 -63.878906 68.4375 -60.671875 C 71.164062 -56.710938 73.054688 -52.21875 74.109375 -47.1875 C 75.171875 -42.15625 75.160156 -37.273438 74.078125 -32.546875 C 72.941406 -27.421875 70.8125 -23.148438 67.6875 -19.734375 C 64.570312 -16.328125 60.878906 -13.648438 56.609375 -11.703125 C 52.335938 -9.753906 47.816406 -8.363281 43.046875 -7.53125 C 38.285156 -6.695312 33.582031 -6.234375 28.9375 -6.140625 Z M 28.9375 -6.140625 "/></g></g></g><g fill="#fffbee" fill-opacity="1"><g transform="translate(120.426707, 280.322942)"><g><path d="M 48.0625 -14.875 C 43.03125 -9.4375 37.46875 -6.304688 31.375 -5.484375 C 25.289062 -4.671875 19.546875 -5.851562 14.140625 -9.03125 C 8.734375 -12.21875 4.410156 -16.882812 1.171875 -23.03125 C -1.609375 -28.769531 -3.539062 -35.046875 -4.625 -41.859375 C -5.707031 -48.679688 -5.539062 -55.421875 -4.125 -62.078125 C -2.707031 -68.734375 0.128906 -74.59375 4.390625 -79.65625 C 7.285156 -83.03125 10.957031 -85.675781 15.40625 -87.59375 C 19.851562 -89.507812 24.410156 -90.484375 29.078125 -90.515625 C 33.753906 -90.554688 37.910156 -89.394531 41.546875 -87.03125 C 45.191406 -84.675781 47.613281 -80.789062 48.8125 -75.375 C 51.476562 -71.050781 53.601562 -66.242188 55.1875 -60.953125 C 56.78125 -55.660156 57.664062 -50.242188 57.84375 -44.703125 C 58.03125 -39.160156 57.347656 -33.796875 55.796875 -28.609375 C 54.253906 -23.429688 51.675781 -18.851562 48.0625 -14.875 Z M 37.328125 -37.25 C 38.535156 -37.820312 39.289062 -39.125 39.59375 -41.15625 C 39.90625 -43.1875 39.957031 -45.472656 39.75 -48.015625 C 39.539062 -50.554688 39.210938 -52.921875 38.765625 -55.109375 C 38.328125 -57.304688 37.992188 -58.742188 37.765625 -59.421875 C 36.859375 -58.421875 36.039062 -57.257812 35.3125 -55.9375 C 34.582031 -54.613281 34.035156 -53.316406 33.671875 -52.046875 C 32.253906 -47.128906 31.726562 -43.085938 32.09375 -39.921875 C 32.46875 -36.765625 34.210938 -35.875 37.328125 -37.25 Z M 37.328125 -37.25 "/></g></g></g><g fill="#fffbee" fill-opacity="1"><g transform="translate(191.547799, 267.885355)"><g><path d="M 92.78125 -7.78125 C 90.226562 -9.363281 87.925781 -11.742188 85.875 -14.921875 C 83.820312 -18.097656 81.925781 -21.570312 80.1875 -25.34375 C 78.457031 -29.113281 76.859375 -32.785156 75.390625 -36.359375 C 73.921875 -39.941406 72.597656 -43.0625 71.421875 -45.71875 C 71.617188 -45.269531 71.015625 -44.265625 69.609375 -42.703125 C 68.210938 -41.148438 66.570312 -39.425781 64.6875 -37.53125 C 62.800781 -35.644531 61.054688 -33.960938 59.453125 -32.484375 C 57.847656 -31.015625 56.878906 -30.191406 56.546875 -30.015625 C 53.054688 -28.085938 50.140625 -27.632812 47.796875 -28.65625 C 45.460938 -29.6875 43.472656 -31.5 41.828125 -34.09375 C 40.179688 -36.6875 38.601562 -39.222656 37.09375 -41.703125 C 34.820312 -45.742188 32.4375 -47.875 29.9375 -48.09375 C 27.445312 -48.320312 24.628906 -46.476562 21.484375 -42.5625 C 18.992188 -39.613281 17.695312 -36.210938 17.59375 -32.359375 C 17.488281 -28.515625 17.785156 -24.585938 18.484375 -20.578125 C 19.191406 -16.566406 19.503906 -12.753906 19.421875 -9.140625 C 19.515625 -4.492188 18.613281 -1.582031 16.71875 -0.40625 C 14.832031 0.757812 12.703125 0.5625 10.328125 -1 C 7.960938 -2.5625 5.882812 -5.039062 4.09375 -8.4375 C 1.289062 -14.175781 -0.753906 -20.40625 -2.046875 -27.125 C -3.335938 -33.84375 -4.300781 -40.382812 -4.9375 -46.75 C -5.226562 -49.8125 -5.640625 -53.390625 -6.171875 -57.484375 C -6.710938 -61.585938 -6.828125 -65.644531 -6.515625 -69.65625 C -6.203125 -73.664062 -5.015625 -76.984375 -2.953125 -79.609375 C -0.628906 -82.773438 1.597656 -84.210938 3.734375 -83.921875 C 5.878906 -83.640625 7.800781 -82.390625 9.5 -80.171875 C 11.207031 -77.960938 12.582031 -75.421875 13.625 -72.546875 C 14.664062 -69.671875 15.25 -67.226562 15.375 -65.21875 C 17.46875 -68.9375 20.410156 -71.753906 24.203125 -73.671875 C 28.003906 -75.597656 32.054688 -75.921875 36.359375 -74.640625 C 38.742188 -73.972656 40.859375 -72.84375 42.703125 -71.25 C 44.546875 -69.65625 46.117188 -67.835938 47.421875 -65.796875 C 48.523438 -64.304688 49.398438 -62.535156 50.046875 -60.484375 C 50.703125 -58.441406 51.738281 -56.828125 53.15625 -55.640625 C 55.820312 -58.148438 58.535156 -60.421875 61.296875 -62.453125 C 64.066406 -64.492188 67.007812 -65.664062 70.125 -65.96875 C 73.25 -66.28125 76.59375 -65.128906 80.15625 -62.515625 C 83.3125 -60.191406 86.070312 -57.234375 88.4375 -53.640625 C 90.8125 -50.054688 92.910156 -46.296875 94.734375 -42.359375 C 96.554688 -38.421875 98.085938 -34.644531 99.328125 -31.03125 C 99.753906 -29.90625 100.269531 -28.109375 100.875 -25.640625 C 101.488281 -23.171875 101.953125 -20.523438 102.265625 -17.703125 C 102.585938 -14.878906 102.582031 -12.359375 102.25 -10.140625 C 101.914062 -7.929688 101.03125 -6.492188 99.59375 -5.828125 C 98.15625 -5.160156 95.882812 -5.8125 92.78125 -7.78125 Z M 92.78125 -7.78125 "/></g></g></g><g fill="#fffbee" fill-opacity="1"><g transform="translate(300.669424, 248.802272)"><g><path d="M 21.984375 -11.921875 C 16.359375 -11.898438 11.648438 -13.289062 7.859375 -16.09375 C 4.078125 -18.90625 1.191406 -22.59375 -0.796875 -27.15625 C -2.796875 -31.71875 -3.988281 -36.660156 -4.375 -41.984375 C -4.769531 -47.316406 -4.390625 -52.503906 -3.234375 -57.546875 C -2.078125 -62.597656 -0.28125 -67.019531 2.15625 -70.8125 C 5.289062 -75.550781 9.617188 -79.421875 15.140625 -82.421875 C 20.660156 -85.421875 26.351562 -86.59375 32.21875 -85.9375 C 35.257812 -85.632812 38.191406 -84.625 41.015625 -82.90625 C 43.835938 -81.1875 46.1875 -79.050781 48.0625 -76.5 C 49.945312 -73.957031 51.03125 -71.179688 51.3125 -68.171875 C 51.601562 -65.171875 50.820312 -62.128906 48.96875 -59.046875 C 47.1875 -56.222656 44.769531 -53.941406 41.71875 -52.203125 C 38.664062 -50.460938 35.617188 -49.035156 32.578125 -47.921875 C 30.546875 -47.210938 28.4375 -46.601562 26.25 -46.09375 C 24.0625 -45.59375 22.265625 -44.710938 20.859375 -43.453125 C 19.460938 -42.191406 18.921875 -40.023438 19.234375 -36.953125 C 19.546875 -33.773438 20.375 -31.941406 21.71875 -31.453125 C 23.0625 -30.972656 24.613281 -31.335938 26.375 -32.546875 C 28.144531 -33.753906 29.941406 -35.296875 31.765625 -37.171875 C 33.597656 -39.054688 35.257812 -40.847656 36.75 -42.546875 C 38.25 -44.242188 39.316406 -45.328125 39.953125 -45.796875 C 43.390625 -48.066406 46.046875 -48.644531 47.921875 -47.53125 C 49.796875 -46.425781 51.039062 -44.457031 51.65625 -41.625 C 52.269531 -38.800781 52.332031 -35.851562 51.84375 -32.78125 C 51.363281 -29.707031 50.503906 -27.28125 49.265625 -25.5 C 46.296875 -21.269531 42.289062 -17.960938 37.25 -15.578125 C 32.21875 -13.203125 27.128906 -11.984375 21.984375 -11.921875 Z M 25.78125 -58.046875 C 27 -57.898438 28.503906 -58.191406 30.296875 -58.921875 C 32.085938 -59.660156 33.535156 -60.632812 34.640625 -61.84375 C 35.742188 -63.050781 35.90625 -64.1875 35.125 -65.25 C 32.84375 -65.21875 30.851562 -64.570312 29.15625 -63.3125 C 27.46875 -62.050781 26.34375 -60.296875 25.78125 -58.046875 Z M 25.78125 -58.046875 "/></g></g></g><g fill="#fffbee" fill-opacity="1"><g transform="translate(368.827174, 236.882912)"><g><path d="M 16.0625 42.453125 C 14.25 39.671875 12.921875 36.554688 12.078125 33.109375 C 11.234375 29.660156 10.300781 26.398438 9.28125 23.328125 C 7.988281 18.648438 6.71875 13.9375 5.46875 9.1875 C 4.21875 4.4375 3.109375 -0.363281 2.140625 -5.21875 C 0.234375 -14.101562 -1.382812 -23.21875 -2.71875 -32.5625 C -4.0625 -41.914062 -4.757812 -51.203125 -4.8125 -60.421875 C -4.8125 -62.453125 -4.726562 -64.890625 -4.5625 -67.734375 C -4.40625 -70.578125 -3.925781 -73.328125 -3.125 -75.984375 C -2.332031 -78.640625 -1.023438 -80.546875 0.796875 -81.703125 C 2.617188 -82.984375 4.488281 -83.429688 6.40625 -83.046875 C 8.332031 -82.671875 10.125 -81.847656 11.78125 -80.578125 C 13.445312 -79.304688 14.660156 -77.84375 15.421875 -76.1875 C 20.660156 -79.132812 26.164062 -80.875 31.9375 -81.40625 C 37.707031 -81.9375 43.101562 -81.203125 48.125 -79.203125 C 53.15625 -77.203125 57.019531 -73.953125 59.71875 -69.453125 C 62.425781 -64.960938 63.320312 -59.164062 62.40625 -52.0625 C 61.207031 -43.832031 57.988281 -36.351562 52.75 -29.625 C 47.519531 -22.894531 41.375 -17.472656 34.3125 -13.359375 C 32.570312 -12.335938 31.335938 -11.671875 30.609375 -11.359375 C 29.890625 -11.054688 29.457031 -10.625 29.3125 -10.0625 C 29.175781 -9.507812 29.050781 -8.203125 28.9375 -6.140625 C 28.882812 -3.617188 29.1875 -1.007812 29.84375 1.6875 C 30.5 4.394531 30.984375 6.976562 31.296875 9.4375 C 31.890625 13.53125 32.460938 17.65625 33.015625 21.8125 C 33.566406 25.96875 33.726562 30.15625 33.5 34.375 C 33.382812 37.15625 32.8125 39.710938 31.78125 42.046875 C 30.757812 44.390625 29.390625 46.160156 27.671875 47.359375 C 25.960938 48.554688 24.097656 48.847656 22.078125 48.234375 C 20.066406 47.628906 18.0625 45.703125 16.0625 42.453125 Z M 24.078125 -37.984375 C 24.660156 -38.796875 25.640625 -40.222656 27.015625 -42.265625 C 28.390625 -44.304688 29.753906 -46.582031 31.109375 -49.09375 C 32.472656 -51.613281 33.46875 -54.003906 34.09375 -56.265625 C 34.71875 -58.535156 34.613281 -60.3125 33.78125 -61.59375 C 33.082031 -62.90625 32.050781 -63.503906 30.6875 -63.390625 C 29.332031 -63.273438 27.984375 -62.769531 26.640625 -61.875 C 25.296875 -60.976562 24.226562 -60.046875 23.4375 -59.078125 C 22.269531 -57.546875 21.707031 -55.644531 21.75 -53.375 C 21.789062 -51.113281 22.082031 -48.773438 22.625 -46.359375 C 23.164062 -43.941406 23.5625 -41.675781 23.8125 -39.5625 Z M 24.078125 -37.984375 "/></g></g></g><g fill="#fffbee" fill-opacity="1"><g transform="translate(446.572203, 223.286937)"><g><path d="M 17.15625 22.15625 C 14.394531 20.007812 11.875 16.523438 9.59375 11.703125 C 7.3125 6.890625 5.257812 1.320312 3.4375 -5 C 1.613281 -11.320312 0.0390625 -17.929688 -1.28125 -24.828125 C -2.613281 -31.722656 -3.71875 -38.390625 -4.59375 -44.828125 C -5.476562 -51.265625 -6.175781 -56.957031 -6.6875 -61.90625 C -6.894531 -63.78125 -7.195312 -66.535156 -7.59375 -70.171875 C -8 -73.816406 -8.347656 -77.859375 -8.640625 -82.296875 C -8.929688 -86.742188 -8.925781 -91.175781 -8.625 -95.59375 C -8.320312 -100.019531 -7.582031 -104.015625 -6.40625 -107.578125 C -5.238281 -111.140625 -3.378906 -113.863281 -0.828125 -115.75 C 1.710938 -117.632812 5.078125 -118.222656 9.265625 -117.515625 C 11.753906 -116.984375 13.644531 -115.421875 14.9375 -112.828125 C 16.226562 -110.242188 17.113281 -107.078125 17.59375 -103.328125 C 18.070312 -99.578125 18.269531 -95.71875 18.1875 -91.75 C 18.101562 -87.78125 17.9375 -84.097656 17.6875 -80.703125 C 17.445312 -77.316406 17.304688 -74.71875 17.265625 -72.90625 C 17.015625 -64.007812 17.710938 -54.851562 19.359375 -45.4375 C 21.003906 -36.019531 22.992188 -26.867188 25.328125 -17.984375 C 27.660156 -9.109375 29.617188 -0.863281 31.203125 6.75 C 31.640625 8.59375 31.632812 10.8125 31.1875 13.40625 C 30.738281 16 29.921875 18.359375 28.734375 20.484375 C 27.546875 22.609375 25.984375 23.960938 24.046875 24.546875 C 22.109375 25.128906 19.8125 24.332031 17.15625 22.15625 Z M 17.15625 22.15625 "/></g></g></g><g fill="#fffbee" fill-opacity="1"><g transform="translate(491.371826, 215.452423)"><g><path d="M 55.578125 -9.890625 C 53.523438 -10.015625 51.816406 -10.882812 50.453125 -12.5 C 49.097656 -14.125 48.007812 -16.09375 47.1875 -18.40625 C 46.363281 -20.71875 45.691406 -22.992188 45.171875 -25.234375 C 44.660156 -27.484375 44.28125 -29.304688 44.03125 -30.703125 C 42.1875 -26.898438 39.582031 -23.476562 36.21875 -20.4375 C 32.863281 -17.394531 29.175781 -15.191406 25.15625 -13.828125 C 21.144531 -12.460938 17.195312 -12.28125 13.3125 -13.28125 C 9.425781 -14.28125 5.925781 -16.84375 2.8125 -20.96875 C -0.207031 -25.226562 -2.269531 -30.015625 -3.375 -35.328125 C -4.488281 -40.640625 -4.753906 -46.070312 -4.171875 -51.625 C -3.597656 -57.1875 -2.382812 -62.226562 -0.53125 -66.75 C 1.257812 -70.894531 3.644531 -74.722656 6.625 -78.234375 C 9.601562 -81.742188 13.019531 -84.46875 16.875 -86.40625 C 20.726562 -88.34375 24.675781 -89.03125 28.71875 -88.46875 C 32.769531 -87.914062 36.75 -85.710938 40.65625 -81.859375 C 42.957031 -79.617188 44.894531 -77.617188 46.46875 -75.859375 C 48.039062 -74.097656 49.335938 -72.164062 50.359375 -70.0625 C 51.390625 -67.96875 52.253906 -65.25 52.953125 -61.90625 L 59.734375 -29.296875 C 59.960938 -28.023438 60.328125 -26.296875 60.828125 -24.109375 C 61.335938 -21.921875 61.628906 -19.722656 61.703125 -17.515625 C 61.785156 -15.316406 61.390625 -13.484375 60.515625 -12.015625 C 59.640625 -10.546875 57.992188 -9.835938 55.578125 -9.890625 Z M 26.546875 -45.4375 C 27.941406 -45.675781 29.253906 -46.710938 30.484375 -48.546875 C 31.722656 -50.378906 32.785156 -52.359375 33.671875 -54.484375 C 34.554688 -56.617188 35.082031 -58.242188 35.25 -59.359375 C 35.96875 -62.109375 35.71875 -64.394531 34.5 -66.21875 C 33.28125 -68.039062 31.382812 -68.128906 28.8125 -66.484375 C 27.0625 -65.460938 25.539062 -63.519531 24.25 -60.65625 C 22.957031 -57.789062 22.128906 -55.367188 21.765625 -53.390625 C 21.503906 -51.429688 21.59375 -49.53125 22.03125 -47.6875 C 22.46875 -45.851562 23.972656 -45.101562 26.546875 -45.4375 Z M 26.546875 -45.4375 "/></g></g></g><g fill="#fffbee" fill-opacity="1"><g transform="translate(561.447025, 203.19774)"><g><path d="M 20.65625 -4.140625 C 16.40625 -4.484375 12.726562 -5.96875 9.625 -8.59375 C 6.53125 -11.226562 3.9375 -14.609375 1.84375 -18.734375 C -0.25 -22.859375 -1.828125 -27.28125 -2.890625 -32 C -3.960938 -36.726562 -4.53125 -41.332031 -4.59375 -45.8125 C -4.65625 -50.300781 -4.253906 -54.175781 -3.390625 -57.4375 C -1.796875 -63.34375 0.75 -68.457031 4.25 -72.78125 C 7.75 -77.113281 12.359375 -80.378906 18.078125 -82.578125 C 21.554688 -83.898438 25.28125 -84.515625 29.25 -84.421875 C 33.21875 -84.335938 36.800781 -83.378906 40 -81.546875 C 43.195312 -79.710938 45.347656 -76.675781 46.453125 -72.4375 C 48.265625 -69.519531 48.769531 -66.941406 47.96875 -64.703125 C 47.164062 -62.472656 45.707031 -60.875 43.59375 -59.90625 C 41.488281 -58.945312 39.253906 -58.882812 36.890625 -59.71875 C 34.535156 -60.5625 32.664062 -62.539062 31.28125 -65.65625 C 29.3125 -64.59375 27.25 -62.492188 25.09375 -59.359375 C 22.945312 -56.234375 21 -52.660156 19.25 -48.640625 C 17.5 -44.617188 16.351562 -40.734375 15.8125 -36.984375 C 15.269531 -33.234375 15.695312 -30.109375 17.09375 -27.609375 C 18.644531 -24.890625 20.144531 -23.65625 21.59375 -23.90625 C 23.050781 -24.15625 24.457031 -25.203125 25.8125 -27.046875 C 27.164062 -28.898438 28.414062 -30.828125 29.5625 -32.828125 C 30.707031 -34.828125 31.691406 -36.203125 32.515625 -36.953125 C 34.273438 -40.609375 35.941406 -42.722656 37.515625 -43.296875 C 39.097656 -43.878906 40.492188 -43.4375 41.703125 -41.96875 C 42.921875 -40.507812 43.863281 -38.546875 44.53125 -36.078125 C 45.207031 -33.617188 45.59375 -31.078125 45.6875 -28.453125 C 45.789062 -25.835938 45.507812 -23.703125 44.84375 -22.046875 C 43.8125 -18.984375 42.019531 -16.03125 39.46875 -13.1875 C 36.914062 -10.34375 33.988281 -8.066406 30.6875 -6.359375 C 27.394531 -4.648438 24.050781 -3.910156 20.65625 -4.140625 Z M 20.65625 -4.140625 "/></g></g></g><g fill="#fffbee" fill-opacity="1"><g transform="translate(626.467159, 191.827083)"><g><path d="M 21.984375 -11.921875 C 16.359375 -11.898438 11.648438 -13.289062 7.859375 -16.09375 C 4.078125 -18.90625 1.191406 -22.59375 -0.796875 -27.15625 C -2.796875 -31.71875 -3.988281 -36.660156 -4.375 -41.984375 C -4.769531 -47.316406 -4.390625 -52.503906 -3.234375 -57.546875 C -2.078125 -62.597656 -0.28125 -67.019531 2.15625 -70.8125 C 5.289062 -75.550781 9.617188 -79.421875 15.140625 -82.421875 C 20.660156 -85.421875 26.351562 -86.59375 32.21875 -85.9375 C 35.257812 -85.632812 38.191406 -84.625 41.015625 -82.90625 C 43.835938 -81.1875 46.1875 -79.050781 48.0625 -76.5 C 49.945312 -73.957031 51.03125 -71.179688 51.3125 -68.171875 C 51.601562 -65.171875 50.820312 -62.128906 48.96875 -59.046875 C 47.1875 -56.222656 44.769531 -53.941406 41.71875 -52.203125 C 38.664062 -50.460938 35.617188 -49.035156 32.578125 -47.921875 C 30.546875 -47.210938 28.4375 -46.601562 26.25 -46.09375 C 24.0625 -45.59375 22.265625 -44.710938 20.859375 -43.453125 C 19.460938 -42.191406 18.921875 -40.023438 19.234375 -36.953125 C 19.546875 -33.773438 20.375 -31.941406 21.71875 -31.453125 C 23.0625 -30.972656 24.613281 -31.335938 26.375 -32.546875 C 28.144531 -33.753906 29.941406 -35.296875 31.765625 -37.171875 C 33.597656 -39.054688 35.257812 -40.847656 36.75 -42.546875 C 38.25 -44.242188 39.316406 -45.328125 39.953125 -45.796875 C 43.390625 -48.066406 46.046875 -48.644531 47.921875 -47.53125 C 49.796875 -46.425781 51.039062 -44.457031 51.65625 -41.625 C 52.269531 -38.800781 52.332031 -35.851562 51.84375 -32.78125 C 51.363281 -29.707031 50.503906 -27.28125 49.265625 -25.5 C 46.296875 -21.269531 42.289062 -17.960938 37.25 -15.578125 C 32.21875 -13.203125 27.128906 -11.984375 21.984375 -11.921875 Z M 25.78125 -58.046875 C 27 -57.898438 28.503906 -58.191406 30.296875 -58.921875 C 32.085938 -59.660156 33.535156 -60.632812 34.640625 -61.84375 C 35.742188 -63.050781 35.90625 -64.1875 35.125 -65.25 C 32.84375 -65.21875 30.851562 -64.570312 29.15625 -63.3125 C 27.46875 -62.050781 26.34375 -60.296875 25.78125 -58.046875 Z M 25.78125 -58.046875 "/></g></g></g></g></g><g clip-path="url(#060e0b0e09)"><g clip-path="url(#078d93849f)"><g clip-path="url(#6dd6f8d194)"><path fill="#fffbee" d="M 163.789062 187.917969 C 149.011719 187.914062 156.03125 191.308594 16.394531 109.976562 C 5.648438 103.71875 3.519531 101.027344 5.429688 97.933594 C 11.117188 88.703125 140.730469 167.46875 147.820312 171.699219 C 152.828125 174.691406 157.007812 179.105469 161.410156 183.039062 C 162.382812 183.910156 162.671875 185.542969 163.789062 187.917969 Z M 163.789062 187.917969 " fill-opacity="1" fill-rule="nonzero"/></g></g></g><g clip-path="url(#bc3808ef33)"><g clip-path="url(#db44cf3a3a)"><g clip-path="url(#4896919f6a)"><path fill="#fffbee" d="M 263.652344 148.730469 C 256.859375 160.203125 254.136719 164.40625 250.800781 163.910156 C 236.140625 161.734375 304.324219 54.472656 315.546875 36.230469 C 320.175781 28.707031 326.21875 22.03125 331.816406 15.128906 C 333.148438 13.488281 335.296875 12.503906 337.070312 11.21875 C 345.210938 15.613281 317.703125 57.421875 263.652344 148.730469 Z M 263.652344 148.730469 " fill-opacity="1" fill-rule="nonzero"/></g></g></g><g clip-path="url(#b4ec8cf402)"><g clip-path="url(#2a3704f711)"><g clip-path="url(#e6b9438c31)"><path fill="#fffbee" d="M 141.582031 145.742188 C 139.058594 145.339844 136.554688 146.105469 130.675781 140.546875 C 87.925781 100.101562 92.144531 103.847656 87.984375 97.996094 C 85.289062 94.207031 89.394531 89.796875 93.546875 93.3125 C 101.84375 100.339844 130.558594 128.765625 136.105469 134.285156 C 139.011719 137.179688 141.753906 140.460938 141.582031 145.742188 Z M 141.582031 145.742188 " fill-opacity="1" fill-rule="nonzero"/></g></g></g><g clip-path="url(#c65b0fc48f)"><g clip-path="url(#19568305dd)"><g clip-path="url(#395061f501)"><path fill="#fffbee" d="M 90.476562 238.484375 C 55.359375 240.707031 51.578125 250.113281 48.441406 243.042969 C 46.035156 237.613281 52.496094 235.496094 59.585938 232.894531 C 83.699219 224.046875 105.441406 231.386719 95.703125 236.484375 C 93.855469 237.453125 91.785156 237.996094 90.476562 238.484375 Z M 90.476562 238.484375 " fill-opacity="1" fill-rule="nonzero"/></g></g></g><g clip-path="url(#928a05407b)"><g clip-path="url(#71194033f2)"><g clip-path="url(#b9e09edb48)"><path fill="#fffbee" d="M 292.1875 155.714844 C 290.441406 157.015625 288.09375 157.511719 285.746094 158.5 C 284.472656 154.574219 283.589844 156.558594 322.59375 116.289062 C 342.867188 95.363281 336.601562 122.578125 292.1875 155.714844 Z M 292.1875 155.714844 " fill-opacity="1" fill-rule="nonzero"/></g></g></g><g clip-path="url(#c65dfb4196)"><g clip-path="url(#40ee347951)"><g clip-path="url(#27f285eec3)"><path fill="#fffbee" d="M 342.839844 162.042969 C 334.9375 168.625 343.832031 163.726562 303.855469 185.167969 C 297.507812 188.574219 290.9375 183.980469 299.238281 179.347656 C 324.859375 165.042969 339.195312 155.1875 342.839844 162.042969 Z M 342.839844 162.042969 " fill-opacity="1" fill-rule="nonzero"/></g></g></g><g clip-path="url(#66edb4c610)"><g clip-path="url(#51eb89c95b)"><g clip-path="url(#43f6d2a7e5)"><path fill="#fffbee" d="M 117.144531 208.417969 C 111.324219 211.847656 110.96875 210.503906 77.214844 201.066406 C 67.15625 198.253906 71.414062 200.453125 66.976562 197.257812 C 67.929688 196.304688 68.730469 194.867188 69.871094 194.503906 C 71.628906 193.949219 73.765625 193.605469 75.496094 194.078125 C 118.09375 205.652344 111.160156 204.023438 117.144531 208.417969 Z M 117.144531 208.417969 " fill-opacity="1" fill-rule="nonzero"/></g></g></g><g clip-path="url(#1fca03ab40)"><g clip-path="url(#5a6d163097)"><g clip-path="url(#bc513b1f55)"><path fill="#fffbee" d="M 243.992188 98.050781 C 245.328125 94.105469 248.992188 93.246094 251.140625 94.160156 C 254.070312 95.40625 252.074219 100.035156 245.636719 119.617188 C 244.917969 121.804688 241.902344 123.316406 240.964844 123.042969 C 234.835938 121.25 240.175781 109.347656 243.992188 98.050781 Z M 243.992188 98.050781 " fill-opacity="1" fill-rule="nonzero"/></g></g></g><g clip-path="url(#88e7eb2c6f)"><g clip-path="url(#b12926b2a2)"><g clip-path="url(#75091b887e)"><path fill="#fffbee" d="M 992.855469 343.8125 L 916.191406 321.121094 L 932.195312 343.15625 L 895.414062 346.597656 L 797.03125 355.78125 L 747.851562 360.386719 C 731.457031 361.746094 714.957031 363.96875 699.132812 364.050781 C 687.9375 364.035156 676.835938 362.773438 666.957031 358.773438 C 657.359375 354.847656 648.617188 347.828125 643.433594 339.027344 C 640.835938 334.644531 639.164062 329.847656 638.707031 325.027344 C 638.300781 320.214844 639.183594 315.207031 641.210938 310.820312 C 643.238281 306.429688 646.230469 302.453125 650.242188 299.3125 C 654.273438 296.195312 658.894531 293.613281 663.921875 291.640625 C 674.019531 287.824219 685.140625 285.890625 696.332031 285.359375 C 701.925781 285.015625 707.566406 285.164062 713.144531 285.453125 C 718.609375 285.8125 723.921875 286.640625 727.722656 288.675781 C 729.59375 289.710938 731.03125 290.960938 732.035156 292.53125 C 733.054688 294.203125 733.542969 295.863281 733.585938 297.679688 C 733.609375 301.316406 731.261719 305.714844 727.914062 309.484375 C 724.542969 313.273438 720.324219 316.636719 715.777344 319.308594 C 714.660156 320.015625 713.46875 320.585938 712.320312 321.207031 L 708.421875 322.976562 L 700.585938 326.523438 C 616.25 363.996094 519.347656 365.703125 432.53125 405.765625 L 428.472656 407.578125 L 424.515625 409.640625 L 416.609375 413.777344 C 411.425781 416.394531 405.824219 419.457031 400.898438 423.394531 C 395.96875 427.296875 391.273438 431.683594 387.550781 437.269531 C 385.636719 440 384.125 443.179688 382.957031 446.550781 C 381.878906 450.003906 381.472656 453.8125 381.855469 457.609375 C 382.429688 461.398438 383.699219 464.996094 385.753906 468.144531 C 386.683594 469.757812 388.070312 471.179688 389.339844 472.570312 C 390.816406 473.789062 392.234375 475.117188 393.902344 475.96875 C 400.503906 479.84375 407.675781 480.34375 414.117188 479.964844 C 420.640625 479.515625 426.804688 478.050781 432.691406 476.003906 C 438.601562 473.980469 444.246094 471.125 449.390625 468.433594 C 459.890625 462.910156 470.46875 456.679688 479.640625 448.136719 C 484.253906 443.886719 488.351562 439.082031 491.816406 433.585938 C 495.28125 428.058594 497.671875 421.972656 499.070312 415.648438 C 500.480469 409.3125 500.804688 402.664062 499.648438 396.0625 C 498.550781 389.367188 495.773438 382.90625 491.433594 377.644531 C 487.183594 372.300781 481.308594 368.320312 475.664062 365.59375 C 469.917969 362.828125 464.082031 360.863281 458.394531 359.230469 C 412.855469 345.488281 364.359375 342.304688 317.386719 349.042969 C 311.539062 350.042969 305.65625 350.828125 299.847656 352.039062 C 294.066406 353.355469 288.21875 354.441406 282.484375 355.941406 C 276.785156 357.5625 270.996094 358.953125 265.351562 360.769531 L 252.660156 364.984375 C 248.738281 366.308594 244.917969 367.964844 241.054688 369.4375 C 232.136719 362.550781 222.933594 356.257812 213.269531 350.203125 C 210.433594 351.53125 207.554688 352.765625 204.746094 354.179688 C 215.320312 360.476562 225.464844 367.203125 235.015625 374.085938 L 227.214844 377.644531 C 222.304688 374.253906 217.25 370.898438 212.085938 367.675781 C 206.976562 364.566406 201.75 361.53125 196.378906 358.554688 L 188.054688 362.980469 C 198.996094 368.722656 209.464844 374.84375 219.402344 381.21875 L 211.792969 385.210938 C 206.703125 382.105469 201.480469 379.042969 196.144531 376.082031 C 190.867188 373.246094 185.488281 370.519531 179.957031 367.851562 L 171.859375 372.722656 C 183.144531 377.910156 193.894531 383.351562 204.183594 389.230469 C 201.632812 390.667969 199.144531 392.230469 196.628906 393.730469 L 200.351562 399.957031 C 202.820312 398.5 205.230469 396.980469 207.71875 395.574219 C 207.582031 407.53125 208.039062 419.3125 208.949219 430.6875 L 215.414062 426.824219 C 215.074219 421.050781 214.835938 415.191406 214.757812 409.261719 C 214.753906 403.464844 214.871094 397.609375 215.140625 391.671875 L 222.5625 387.769531 C 221.804688 399.75 221.566406 411.460938 221.863281 422.914062 L 228.539062 419.382812 C 228.519531 413.597656 228.617188 407.742188 228.859375 401.824219 C 229.152344 396.019531 229.613281 390.203125 230.191406 384.289062 L 237.804688 380.796875 C 236.417969 392.734375 235.507812 404.355469 235.214844 415.871094 C 237.453125 414.742188 239.796875 413.765625 242.078125 412.6875 C 242.613281 402.132812 243.574219 391.351562 245.160156 380.8125 C 248.886719 379.386719 252.582031 377.816406 256.347656 376.488281 L 267.152344 372.910156 C 272.546875 370.953125 278.175781 369.765625 283.667969 368.160156 C 294.765625 365.285156 306.011719 363.007812 317.355469 361.308594 C 362.691406 354.566406 409.535156 357.410156 453.445312 370.425781 C 464.4375 373.480469 475.019531 377.34375 481.246094 384.3125 C 484.386719 387.90625 486.53125 392.324219 487.523438 396.996094 C 488.46875 401.746094 488.457031 406.894531 487.5 411.894531 C 486.507812 416.902344 484.679688 421.808594 482.136719 426.238281 C 479.578125 430.597656 476.078125 434.78125 472.257812 438.488281 C 464.488281 445.953125 454.921875 451.847656 444.832031 457.179688 C 442.332031 458.488281 439.703125 459.859375 437.222656 461.066406 C 434.789062 462.226562 432.316406 463.335938 429.765625 464.226562 C 424.703125 466.054688 419.453125 467.429688 414.339844 467.871094 C 409.289062 468.28125 404.28125 467.863281 400.675781 465.984375 C 398.84375 465.09375 397.484375 463.78125 396.28125 462.289062 C 395.246094 460.628906 394.191406 458.792969 393.957031 456.878906 C 392.375 449.332031 399.207031 439.960938 407.476562 433.550781 C 411.664062 430.148438 416.097656 427.503906 421.367188 424.882812 C 426.488281 422.320312 431.410156 419.394531 436.660156 417.113281 C 457.359375 407.273438 479.277344 399.875 501.542969 393.617188 C 523.820312 387.347656 546.515625 382.222656 569.320312 377.140625 C 614.851562 367.074219 661.273438 356.964844 704.953125 337.761719 L 713.085938 334.074219 L 717.160156 332.222656 C 718.554688 331.503906 720.054688 330.777344 721.421875 329.949219 C 726.992188 326.695312 732.113281 322.757812 736.59375 317.808594 C 738.824219 315.316406 740.90625 312.578125 742.542969 309.339844 C 744.207031 306.160156 745.511719 302.425781 745.589844 298.261719 C 745.941406 289.824219 740.640625 281.871094 733.816406 278.277344 C 727.089844 274.640625 720.390625 273.917969 714.253906 273.417969 C 708.132812 273.0625 702.089844 272.929688 695.980469 273.265625 C 683.824219 273.828125 671.570312 275.835938 659.71875 280.257812 C 653.820312 282.578125 648.066406 285.640625 642.796875 289.71875 C 637.574219 293.847656 633.105469 299.382812 630.210938 305.65625 C 629.566406 307.261719 628.808594 308.832031 628.316406 310.484375 L 627.132812 315.503906 C 626.441406 318.890625 626.371094 322.390625 626.578125 325.828125 C 627.183594 332.769531 629.546875 339.316406 632.90625 345.035156 C 639.710938 356.523438 650.265625 364.925781 662.316406 369.925781 C 674.273438 374.761719 686.921875 376.074219 699.054688 376.109375 C 707.675781 376.109375 716.121094 375.4375 724.410156 374.679688 L 749.144531 372.367188 L 798.574219 367.746094 L 897.425781 358.492188 L 933.582031 355.117188 L 921.683594 380.328125 Z M 992.855469 343.8125 " fill-opacity="1" fill-rule="nonzero"/></g></g></g><g transform="matrix(1, 0, 0, 1, 520, 320)"><g clip-path="url(#48a3c40c1c)"><g fill="#fffbee" fill-opacity="1"><g transform="translate(30.325392, 229.981227)"><g><path d="M 27.140625 -5.765625 C 24.671875 -5.765625 21.910156 -5.8125 18.859375 -5.90625 C 15.816406 -6 12.878906 -6.414062 10.046875 -7.15625 C 7.210938 -7.894531 4.84375 -9.222656 2.9375 -11.140625 C 0.320312 -13.828125 -0.925781 -16.472656 -0.8125 -19.078125 C -0.695312 -21.679688 0.394531 -23.953125 2.46875 -25.890625 C 4.550781 -27.828125 7.179688 -29.015625 10.359375 -29.453125 C 12.328125 -29.796875 14.585938 -29.738281 17.140625 -29.28125 C 19.691406 -28.832031 22.257812 -28.441406 24.84375 -28.109375 C 27.425781 -27.773438 29.773438 -27.992188 31.890625 -28.765625 C 34.015625 -29.535156 35.609375 -31.359375 36.671875 -34.234375 C 37.910156 -37.367188 37.707031 -39.941406 36.0625 -41.953125 C 34.425781 -43.972656 32.242188 -45.5625 29.515625 -46.71875 C 26.785156 -47.875 24.300781 -48.757812 22.0625 -49.375 C 13.0625 -51.957031 6.035156 -56.265625 0.984375 -62.296875 C -4.054688 -68.335938 -6.738281 -76.160156 -7.0625 -85.765625 C -7.394531 -95.367188 -5.046875 -104.125 -0.015625 -112.03125 C 5.003906 -119.9375 11.765625 -125.929688 20.265625 -130.015625 C 24.398438 -132.078125 29.046875 -133.613281 34.203125 -134.625 C 39.367188 -135.644531 44.1875 -135.253906 48.65625 -133.453125 C 51.195312 -132.429688 53.28125 -130.796875 54.90625 -128.546875 C 56.53125 -126.304688 57.25 -123.957031 57.0625 -121.5 C 56.875 -119.050781 55.1875 -116.992188 52 -115.328125 C 48.695312 -113.617188 45.441406 -111.5 42.234375 -108.96875 C 39.023438 -106.445312 36.273438 -103.691406 33.984375 -100.703125 C 31.691406 -97.722656 30.207031 -94.625 29.53125 -91.40625 C 28.863281 -88.195312 29.304688 -85.039062 30.859375 -81.9375 C 32.421875 -78.84375 35.507812 -75.960938 40.125 -73.296875 C 43.007812 -71.546875 45.921875 -70 48.859375 -68.65625 C 51.796875 -67.3125 54.59375 -65.773438 57.25 -64.046875 C 59.914062 -62.328125 62.242188 -59.957031 64.234375 -56.9375 C 66.796875 -53.21875 68.570312 -49 69.5625 -44.28125 C 70.5625 -39.570312 70.546875 -34.992188 69.515625 -30.546875 C 68.441406 -25.742188 66.441406 -21.738281 63.515625 -18.53125 C 60.597656 -15.320312 57.132812 -12.800781 53.125 -10.96875 C 49.113281 -9.144531 44.875 -7.84375 40.40625 -7.0625 C 35.9375 -6.28125 31.515625 -5.847656 27.140625 -5.765625 Z M 27.140625 -5.765625 "/></g></g></g><g fill="#fffbee" fill-opacity="1"><g transform="translate(112.936856, 215.534215)"><g><path d="M 45.109375 -13.953125 C 40.378906 -8.859375 35.160156 -5.921875 29.453125 -5.140625 C 23.742188 -4.367188 18.351562 -5.476562 13.28125 -8.46875 C 8.207031 -11.46875 4.144531 -15.847656 1.09375 -21.609375 C -1.519531 -27.003906 -3.332031 -32.894531 -4.34375 -39.28125 C -5.351562 -45.675781 -5.191406 -52 -3.859375 -58.25 C -2.535156 -64.5 0.125 -70 4.125 -74.75 C 6.832031 -77.914062 10.273438 -80.394531 14.453125 -82.1875 C 18.628906 -83.988281 22.90625 -84.90625 27.28125 -84.9375 C 31.664062 -84.96875 35.566406 -83.878906 38.984375 -81.671875 C 42.410156 -79.460938 44.679688 -75.816406 45.796875 -70.734375 C 48.304688 -66.671875 50.300781 -62.15625 51.78125 -57.1875 C 53.269531 -52.226562 54.101562 -47.148438 54.28125 -41.953125 C 54.46875 -36.753906 53.832031 -31.722656 52.375 -26.859375 C 50.914062 -21.992188 48.492188 -17.691406 45.109375 -13.953125 Z M 35.03125 -34.96875 C 36.164062 -35.5 36.878906 -36.710938 37.171875 -38.609375 C 37.460938 -40.515625 37.507812 -42.660156 37.3125 -45.046875 C 37.113281 -47.429688 36.804688 -49.648438 36.390625 -51.703125 C 35.972656 -53.765625 35.65625 -55.117188 35.4375 -55.765625 C 34.582031 -54.828125 33.8125 -53.738281 33.125 -52.5 C 32.445312 -51.257812 31.929688 -50.046875 31.578125 -48.859375 C 30.253906 -44.234375 29.769531 -40.4375 30.125 -37.46875 C 30.476562 -34.5 32.113281 -33.664062 35.03125 -34.96875 Z M 35.03125 -34.96875 "/></g></g></g><g fill="#fffbee" fill-opacity="1"><g transform="translate(179.680524, 203.862147)"><g><path d="M 19.375 -3.90625 C 15.394531 -4.21875 11.953125 -5.609375 9.046875 -8.078125 C 6.140625 -10.546875 3.703125 -13.710938 1.734375 -17.578125 C -0.234375 -21.453125 -1.71875 -25.609375 -2.71875 -30.046875 C -3.726562 -34.484375 -4.257812 -38.800781 -4.3125 -43 C -4.375 -47.207031 -4 -50.84375 -3.1875 -53.90625 C -1.675781 -59.445312 0.710938 -64.242188 3.984375 -68.296875 C 7.265625 -72.359375 11.59375 -75.421875 16.96875 -77.484375 C 20.238281 -78.734375 23.734375 -79.316406 27.453125 -79.234375 C 31.171875 -79.160156 34.53125 -78.257812 37.53125 -76.53125 C 40.53125 -74.8125 42.546875 -71.960938 43.578125 -67.984375 C 45.296875 -65.253906 45.773438 -62.835938 45.015625 -60.734375 C 44.265625 -58.628906 42.898438 -57.125 40.921875 -56.21875 C 38.941406 -55.3125 36.84375 -55.253906 34.625 -56.046875 C 32.40625 -56.835938 30.648438 -58.695312 29.359375 -61.625 C 27.515625 -60.625 25.582031 -58.648438 23.5625 -55.703125 C 21.539062 -52.765625 19.707031 -49.410156 18.0625 -45.640625 C 16.414062 -41.867188 15.335938 -38.226562 14.828125 -34.71875 C 14.328125 -31.207031 14.734375 -28.265625 16.046875 -25.890625 C 17.503906 -23.347656 18.910156 -22.195312 20.265625 -22.4375 C 21.628906 -22.675781 22.945312 -23.664062 24.21875 -25.40625 C 25.488281 -27.144531 26.664062 -28.945312 27.75 -30.8125 C 28.832031 -32.6875 29.757812 -33.972656 30.53125 -34.671875 C 32.164062 -38.109375 33.722656 -40.09375 35.203125 -40.625 C 36.691406 -41.164062 38.003906 -40.753906 39.140625 -39.390625 C 40.273438 -38.023438 41.160156 -36.1875 41.796875 -33.875 C 42.429688 -31.5625 42.796875 -29.175781 42.890625 -26.71875 C 42.984375 -24.257812 42.710938 -22.242188 42.078125 -20.671875 C 41.117188 -17.804688 39.4375 -15.039062 37.03125 -12.375 C 34.632812 -9.707031 31.890625 -7.566406 28.796875 -5.953125 C 25.710938 -4.347656 22.570312 -3.664062 19.375 -3.90625 Z M 19.375 -3.90625 "/></g></g></g><g fill="#fffbee" fill-opacity="1"><g transform="translate(240.698712, 193.191346)"><g><path d="M -9.5 -78.421875 C -11.226562 -80.597656 -12.046875 -82.875 -11.953125 -85.25 C -11.859375 -87.625 -11.171875 -89.65625 -9.890625 -91.34375 C -8.617188 -93.03125 -6.953125 -93.9375 -4.890625 -94.0625 C -2.835938 -94.195312 -0.707031 -93.113281 1.5 -90.8125 C 3.8125 -88.507812 4.925781 -86.113281 4.84375 -83.625 C 4.769531 -81.132812 3.984375 -79.03125 2.484375 -77.3125 C 0.992188 -75.601562 -0.863281 -74.71875 -3.09375 -74.65625 C -5.332031 -74.601562 -7.46875 -75.859375 -9.5 -78.421875 Z M 15.71875 -4.59375 C 13.507812 -2.414062 11.53125 -1.507812 9.78125 -1.875 C 8.03125 -2.238281 6.515625 -3.375 5.234375 -5.28125 C 3.953125 -7.195312 2.832031 -9.421875 1.875 -11.953125 C 0.925781 -14.492188 0.191406 -16.925781 -0.328125 -19.25 C -0.847656 -21.570312 -1.257812 -23.269531 -1.5625 -24.34375 C -2.320312 -28.019531 -2.945312 -31.753906 -3.4375 -35.546875 C -3.9375 -39.347656 -4.394531 -43.125 -4.8125 -46.875 C -5.050781 -48.851562 -5.382812 -51.066406 -5.8125 -53.515625 C -6.25 -55.972656 -6.414062 -58.363281 -6.3125 -60.6875 C -6.21875 -63.007812 -5.523438 -65.015625 -4.234375 -66.703125 C -2.171875 -69.648438 -0.242188 -71.140625 1.546875 -71.171875 C 3.335938 -71.203125 4.945312 -70.332031 6.375 -68.5625 C 7.8125 -66.789062 9.0625 -64.617188 10.125 -62.046875 C 11.195312 -59.484375 12.09375 -56.941406 12.8125 -54.421875 C 13.539062 -51.910156 14.070312 -50.007812 14.40625 -48.71875 C 15.738281 -44.34375 16.628906 -39.914062 17.078125 -35.4375 C 17.523438 -30.96875 17.804688 -26.4375 17.921875 -21.84375 C 17.972656 -20.289062 18.078125 -18.398438 18.234375 -16.171875 C 18.398438 -13.953125 18.359375 -11.804688 18.109375 -9.734375 C 17.859375 -7.671875 17.0625 -5.957031 15.71875 -4.59375 Z M 15.71875 -4.59375 "/></g></g></g><g fill="#fffbee" fill-opacity="1"><g transform="translate(269.817729, 188.099041)"><g><path d="M 52.15625 -9.296875 C 50.226562 -9.398438 48.625 -10.210938 47.34375 -11.734375 C 46.070312 -13.253906 45.050781 -15.097656 44.28125 -17.265625 C 43.507812 -19.441406 42.878906 -21.582031 42.390625 -23.6875 C 41.910156 -25.800781 41.554688 -27.515625 41.328125 -28.828125 C 39.597656 -25.242188 37.15625 -22.023438 34 -19.171875 C 30.84375 -16.328125 27.378906 -14.265625 23.609375 -12.984375 C 19.835938 -11.710938 16.128906 -11.539062 12.484375 -12.46875 C 8.835938 -13.394531 5.550781 -15.800781 2.625 -19.6875 C -0.207031 -23.6875 -2.140625 -28.179688 -3.171875 -33.171875 C -4.210938 -38.160156 -4.457031 -43.253906 -3.90625 -48.453125 C -3.363281 -53.660156 -2.226562 -58.390625 -0.5 -62.640625 C 1.175781 -66.535156 3.410156 -70.128906 6.203125 -73.421875 C 9.003906 -76.722656 12.210938 -79.273438 15.828125 -81.078125 C 19.441406 -82.890625 23.148438 -83.539062 26.953125 -83.03125 C 30.765625 -82.519531 34.5 -80.445312 38.15625 -76.8125 C 40.332031 -74.71875 42.148438 -72.84375 43.609375 -71.1875 C 45.078125 -69.539062 46.289062 -67.734375 47.25 -65.765625 C 48.21875 -63.796875 49.035156 -61.238281 49.703125 -58.09375 L 56.0625 -27.5 C 56.269531 -26.300781 56.609375 -24.675781 57.078125 -22.625 C 57.554688 -20.570312 57.832031 -18.515625 57.90625 -16.453125 C 57.988281 -14.390625 57.617188 -12.664062 56.796875 -11.28125 C 55.972656 -9.894531 54.425781 -9.234375 52.15625 -9.296875 Z M 24.90625 -42.640625 C 26.226562 -42.867188 27.46875 -43.84375 28.625 -45.5625 C 29.78125 -47.28125 30.769531 -49.140625 31.59375 -51.140625 C 32.425781 -53.140625 32.925781 -54.65625 33.09375 -55.6875 C 33.757812 -58.269531 33.519531 -60.421875 32.375 -62.140625 C 31.226562 -63.859375 29.445312 -63.941406 27.03125 -62.390625 C 25.40625 -61.441406 23.984375 -59.625 22.765625 -56.9375 C 21.546875 -54.25 20.765625 -51.972656 20.421875 -50.109375 C 20.171875 -48.273438 20.25 -46.492188 20.65625 -44.765625 C 21.070312 -43.035156 22.488281 -42.328125 24.90625 -42.640625 Z M 24.90625 -42.640625 "/></g></g></g><g fill="#fffbee" fill-opacity="1"><g transform="translate(335.579878, 176.59862)"><g><path d="M 16.109375 20.78125 C 13.503906 18.757812 11.132812 15.492188 9 10.984375 C 6.863281 6.472656 4.9375 1.25 3.21875 -4.6875 C 1.507812 -10.625 0.0351562 -16.828125 -1.203125 -23.296875 C -2.453125 -29.765625 -3.488281 -36.019531 -4.3125 -42.0625 C -5.144531 -48.113281 -5.804688 -53.453125 -6.296875 -58.078125 C -6.484375 -59.847656 -6.757812 -62.441406 -7.125 -65.859375 C -7.488281 -69.273438 -7.8125 -73.066406 -8.09375 -77.234375 C -8.382812 -81.410156 -8.390625 -85.570312 -8.109375 -89.71875 C -7.828125 -93.875 -7.128906 -97.617188 -6.015625 -100.953125 C -4.910156 -104.296875 -3.164062 -106.851562 -0.78125 -108.625 C 1.601562 -110.394531 4.769531 -110.941406 8.71875 -110.265625 C 11.039062 -109.785156 12.804688 -108.328125 14.015625 -105.890625 C 15.234375 -103.460938 16.066406 -100.488281 16.515625 -96.96875 C 16.960938 -93.445312 17.144531 -89.828125 17.0625 -86.109375 C 16.988281 -82.390625 16.832031 -78.9375 16.59375 -75.75 C 16.363281 -72.5625 16.226562 -70.117188 16.1875 -68.421875 C 15.96875 -60.054688 16.628906 -51.457031 18.171875 -42.625 C 19.722656 -33.789062 21.59375 -25.207031 23.78125 -16.875 C 25.96875 -8.550781 27.796875 -0.8125 29.265625 6.34375 C 29.679688 8.070312 29.679688 10.148438 29.265625 12.578125 C 28.847656 15.015625 28.082031 17.226562 26.96875 19.21875 C 25.851562 21.21875 24.390625 22.488281 22.578125 23.03125 C 20.765625 23.570312 18.609375 22.820312 16.109375 20.78125 Z M 16.109375 20.78125 "/></g></g></g></g></g></g></g></g></svg>